<svg width="174" height="403" viewBox="0 0 174 403" fill="none" xmlns="http://www.w3.org/2000/svg">
<g clip-path="url(#clip0_47_1057)">
<path d="M14.9 9C10 6.9 4.7 6.9 0 8.8C1.7 13.5 5.2 17.6 10.1 19.7C15 21.9 20.3 21.9 25 20C23.2 15.2 19.7 11.2 14.9 9Z" fill="#00A291"/>
<path d="M37.3 34.7C37.3 34.7 20.2 23.4 18.4 3.6L24.1 3.5L22.1 5.3C22.1 5.3 19.8 19.1 38.8 33.8L37.3 34.7Z" fill="#7D6D5F"/>
<path d="M30.1 8.8C27.1 13.2 26.2 18.4 27.2 23.4C32.2 22.6 36.8 19.9 39.8 15.5C42.8 11.1 43.7 5.9 42.7 0.9C37.7 1.7 33.1 4.4 30.1 8.8Z" fill="#00A291"/>
<path d="M88.5 124.3L88.8 127.3L89.1 129.9L90.2 127.8L92.3 129L93.2 126L95.7 127.4V124.7L99.6 126L94.9 120.2L88.5 124.3Z" fill="#9E8A78"/>
<path d="M32.5 25.5C54.4 11.4 58.6 36.1 87.2 52.3C116 68.6 122.2 81.5 119.2 95.4C116.2 109 95 122.2 95 122.2C95 122.2 74.2 136.1 60.6 133.2C46.7 130.2 37.4 119.2 34.5 86.3C31.4 53.7 10.7 39.6 32.5 25.5Z" fill="#BAD481"/>
<path opacity="0.05" d="M78.5 62.5C102 87.9 104.5 103 97.9 116C95.5 120.7 90.7 124.6 85.6 127.6C91.1 124.9 94.9 122.3 94.9 122.3C94.9 122.3 116.2 109.1 119.1 95.5C122.1 81.6 115.9 68.6 87.1 52.4C70.8 43 62.4 31 54.1 25C60.4 33.7 65.3 48.2 78.5 62.5Z" fill="black"/>
<path d="M159.538 380.311C177.931 361.918 177.931 332.096 159.538 313.703C141.144 295.309 111.322 295.309 92.9289 313.703C74.5354 332.096 74.5354 361.918 92.9289 380.311C111.322 398.705 141.144 398.705 159.538 380.311Z" fill="#FFD54D"/>
<path d="M167.081 356.455C172.304 333.911 158.263 311.402 135.719 306.179C113.176 300.956 90.6663 314.998 85.4434 337.541C80.2205 360.085 94.2618 382.594 116.806 387.817C139.349 393.04 161.858 378.999 167.081 356.455Z" fill="#FFF1C2"/>
<path d="M164.047 355.772C168.89 334.898 155.894 314.051 135.021 309.208C114.147 304.365 93.2997 317.361 88.4568 338.234C83.614 359.108 96.6095 379.955 117.483 384.798C138.357 389.641 159.204 376.646 164.047 355.772Z" fill="#FFF8E0"/>
<path d="M131.3 340.1L149.5 323C150.5 322.1 150.4 320.5 149.4 319.7C143.8 315 136.8 311.9 129.1 311.3C127.8 311.2 126.7 312.3 126.7 313.6L127.5 338.6C127.6 340.4 129.9 341.4 131.3 340.1Z" fill="#FFD54D"/>
<path d="M119.3 341.9L102.2 323.7C101.3 322.7 99.7 322.8 98.9 323.8C94.2 329.4 91.1 336.4 90.5 344.1C90.4 345.4 91.5 346.5 92.8 346.5L117.8 345.7C119.7 345.6 120.6 343.3 119.3 341.9Z" fill="#FFD54D"/>
<path d="M162 344.1C161.4 336.4 158.3 329.3 153.6 323.8C152.7 322.8 151.2 322.8 150.3 323.7L133.2 341.9C131.9 343.3 132.8 345.6 134.8 345.7L159.8 346.5C161 346.5 162.1 345.4 162 344.1Z" fill="#FFD54D"/>
<path d="M123.3 311.2C115.6 311.8 108.5 314.9 103 319.6C102 320.5 102 322 102.9 322.9L121.1 340C122.5 341.3 124.8 340.4 124.9 338.4L125.7 313.4C125.8 312.1 124.6 311 123.3 311.2Z" fill="#FFD54D"/>
<path d="M127.5 355.4L126.7 380.4C126.7 381.7 127.8 382.8 129.1 382.7C136.8 382.1 143.9 379 149.4 374.3C150.4 373.4 150.4 371.9 149.5 371L131.3 353.9C129.9 352.5 127.6 353.5 127.5 355.4Z" fill="#FFD54D"/>
<path d="M133.1 352L150.2 370.2C151.1 371.2 152.7 371.1 153.5 370.1C158.2 364.5 161.3 357.5 161.9 349.8C162 348.5 160.9 347.4 159.6 347.4L134.6 348.2C132.8 348.3 131.8 350.6 133.1 352Z" fill="#FFD54D"/>
<path d="M117.8 348.3L92.8 347.5C91.5 347.5 90.4 348.6 90.5 349.9C91.1 357.6 94.2 364.7 98.9 370.2C99.8 371.2 101.3 371.2 102.2 370.3L119.3 352.1C120.6 350.6 119.7 348.3 117.8 348.3Z" fill="#FFD54D"/>
<path d="M121.2 353.9L102.9 371C101.9 371.9 102 373.5 103 374.3C108.6 379 115.6 382.1 123.3 382.7C124.6 382.8 125.7 381.7 125.7 380.4L124.9 355.4C124.9 353.5 122.6 352.5 121.2 353.9Z" fill="#FFD54D"/>
<path d="M59.5 281.2C59.5 281.2 51.5 273.1 46.3 273.6C41.1 274.1 55.7 286.1 55.7 286.1C55.7 286.1 41.4 277.1 38.3 279.2C35 281.5 53.4 292 53.4 292C53.4 292 29.7 281.9 27.4 287.6C25.2 293.4 49.3 302.6 49.3 302.6C49.3 302.6 30.2 298.2 31.1 301.9C32 305.6 47.1 308.4 47.1 308.4C47.1 308.4 29.8 307.7 33.3 311.6C36.8 315.5 46.6 314.7 46.6 314.7C46.6 314.7 53.9 312.5 58.6 300.2C63.4 287.7 59.5 281.2 59.5 281.2Z" fill="#00A291"/>
<path d="M74.3 277.2C74 275.3 72.3 273.8 70.3 273.9H70.2C68.2 273.9 66.6 275.5 66.4 277.4C65.9 276.7 65.2 276.2 64.4 276C63.4 275.7 62.3 275.7 61.4 276.2C61.4 276.2 61.2 276.3 61.1 276.3C59.4 277.2 58.7 279.2 59.3 280.9C57.8 280 55.8 280.2 54.5 281.5C54.5 281.5 54.5 281.5 54.4 281.6C54.4 281.6 54.4 281.6 54.3 281.7C53.1 283 53 285 53.9 286.4C52.2 285.9 50.3 286.6 49.4 288.2V288.3C48.4 289.9 48.7 291.9 49.9 293.1C48.2 292.9 46.4 293.9 45.7 295.6C45.7 295.6 45.6 295.8 45.6 295.9C45 297.6 45.7 299.4 47.1 300.4C45.3 300.5 43.8 301.9 43.5 303.7V303.8V303.9C43.3 305.6 44.3 307.3 45.9 307.9C44.2 308.4 42.9 310 43 311.9C43 311.9 43 312 43 312.1C43.1 314 44.5 315.4 46.3 315.7C44.7 316.6 43.9 318.7 44.6 320.5L44.7 320.7C45.4 322.5 47.4 323.5 49.3 323C48.1 324.6 48.4 326.9 49.9 328.3L50 328.4C50.8 329 51.7 329.4 52.7 329.3C53.6 329.2 54.4 328.9 55 328.4C54.8 330.3 56 332.1 57.8 332.6H58C59.8 333.1 61.6 332.3 62.5 330.7C62.9 332.4 64.4 333.7 66.2 333.7C66.2 333.7 66.4 333.7 66.5 333.7C68.2 333.7 69.6 332.7 70.2 331.1C70.7 332.6 72.2 333.7 73.9 333.7C73.9 333.7 74.1 333.7 74.2 333.7C75.9 333.7 77.3 332.5 77.8 331C78.4 332.5 79.9 333.6 81.6 333.6H81.9C83.6 333.5 85 332.3 85.4 330.7C86.1 332.3 87.7 333.3 89.5 333.1H89.7C91.5 332.9 92.8 331.6 93.1 329.9C94 331.4 95.7 332.1 97.4 331.7H97.5H97.6H97.7C99.4 331.2 100.6 329.5 100.4 327.7C101.8 329 103.9 329.1 105.5 327.9L105.7 327.8C107.3 326.5 107.6 324.4 106.5 322.7C108.4 323.2 110.5 322.1 111.1 320.2V320.1C111.2 319.8 111.3 319.5 111.3 319.2C111.5 317.6 110.7 316 109.2 315.2C110.1 315 110.8 314.4 111.3 313.7C111.9 312.8 112.1 311.8 112 310.8C112 310.8 112 310.6 112 310.5C111.6 308.6 109.9 307.3 107.9 307.4C109.2 306.1 109.5 304 108.5 302.4L108.4 302.2C107.4 300.7 105.5 300.1 103.9 300.7C104.8 299.2 104.7 297.3 103.5 296L103.3 295.8C102.1 294.5 100.2 294.3 98.7 295.1C99.4 293.6 99.2 291.8 98 290.6L97.9 290.5C97.9 290.5 97.9 290.5 97.8 290.4C97.8 290.4 97.8 290.4 97.7 290.3C96.5 289.2 94.7 289 93.3 289.7C93.9 288.2 93.5 286.4 92.2 285.3L92.1 285.2C90.9 284.2 89.1 284 87.7 284.8C88.3 283.3 87.8 281.5 86.5 280.4L86.4 280.3C85 279.1 83 279.1 81.5 280.1C81.9 278.3 81 276.4 79.2 275.7C79.2 275.7 79.1 275.7 79.1 275.6C77.4 275 75.4 275.7 74.3 277.2Z" fill="#502F69"/>
<g opacity="0.1">
<path opacity="0.1" d="M71.5 324.3C72.1 325.3 73.1 325.9 74.3001 325.9C73.2001 325.6 72.3 324.6 72 323.4C71.6 323.9 71.1 324.4 70.5 324.6C69.7 324.9 68.9 324.8 68.2 324.5H68.1C66.8 323.9 66.0001 322.4 66.3001 321.1C66.2001 321.1 66.1 321.2 66.1 321.2C65.3 321.5 64.5 321.5 63.7 321.1H63.6C62.2 320.5 61.4 318.9 61.8 317.4C61.8 317.3 61.8 317.2 61.9 317.1C60.5 317.9 58.8 317.6 57.8 316.3L57.7 316.2C56.7 314.9 56.9 313.2 57.9 312C56.4 312.2 54.9 311.4 54.4 309.9V309.8C53.9 308.4 54.5 306.8 55.7 306C54.3 305.8 53.1 304.8 52.9 303.4V303.3V303.2C52.7 301.7 53.6 300.3 54.9 299.8C54.2 299.6 53.6 299.2 53.2 298.6C51.9 298.9 50.9 300 50.8 301.4V301.6C50.7 303 51.7 304.3 53 304.7C51.7 305.2 50.8 306.6 51 308V308.1V308.2C51.2 309.6 52.3 310.6 53.7 310.8C52.5 311.6 51.9 313.1 52.4 314.5V314.6C52.9 316 54.3 316.8 55.8 316.6C54.8 317.7 54.7 319.4 55.6 320.6L55.7 320.7C56.7 321.9 58.4 322.2 59.7 321.4C59.2 322.9 59.9 324.6 61.4 325.3H61.5C62.2 325.6 63 325.6 63.8 325.4C64.4 325.2 65.0001 324.7 65.3001 324.2C65.6001 325.7 66.9 326.8 68.4 326.8H68.5C69.9 326.7 71.2 325.7 71.5 324.3Z" fill="white"/>
</g>
<path d="M75.4 217.7C101.634 217.7 122.9 196.434 122.9 170.2C122.9 143.966 101.634 122.7 75.4 122.7C49.1665 122.7 27.9 143.966 27.9 170.2C27.9 196.434 49.1665 217.7 75.4 217.7Z" fill="#9E8A78"/>
<path d="M106.158 200.945C123.146 183.958 123.146 156.415 106.158 139.428C89.1704 122.44 61.628 122.44 44.6403 139.428C27.6527 156.415 27.6527 183.958 44.6403 200.945C61.628 217.933 89.1704 217.933 106.158 200.945Z" fill="#BAD481"/>
<path d="M75.4 149.2L76.3 161.6C76.4 163 78.2 163.5 79 162.3L85.9 152L80.5 163.1C79.9 164.4 81.2 165.7 82.5 165.1L93.6 159.7L83.3 166.6C82.1 167.4 82.6 169.2 84 169.3L96.4 170.2L84 171.1C82.6 171.2 82.1 173 83.3 173.8L93.6 180.7L82.5 175.3C81.2 174.7 79.9 176 80.5 177.3L85.9 188.4L79 178.1C78.2 176.9 76.4 177.4 76.3 178.8L75.4 191.2L74.5 178.8C74.4 177.4 72.6 176.9 71.8 178.1L64.9 188.4L70.3 177.3C70.9 176 69.6 174.7 68.3 175.3L57.2 180.7L67.5 173.8C68.7 173 68.2 171.2 66.8 171.1L54.4 170.2L66.8 169.3C68.2 169.2 68.7 167.4 67.5 166.6L57.2 159.7L68.3 165.1C69.6 165.7 70.9 164.4 70.3 163.1L64.9 152L71.8 162.3C72.6 163.5 74.4 163 74.5 161.6L75.4 149.2Z" fill="#FEFFDE"/>
<path d="M80.9 152.9C80.7 154 79.9 154.8 79.3 154.7C78.6 154.6 78.3 153.5 78.5 152.4C78.7 151.3 79.5 150.5 80.1 150.6C80.8 150.7 81.1 151.8 80.9 152.9Z" fill="#756659"/>
<path d="M85.5 146.4C84.9 147.4 84 147.9 83.4 147.6C82.8 147.3 82.8 146.2 83.4 145.2C84 144.2 84.9 143.7 85.5 144C86.1 144.3 86.1 145.4 85.5 146.4Z" fill="#756659"/>
<path d="M87 159.8C86.2 160.6 85.1 160.9 84.7 160.4C84.2 159.9 84.5 158.9 85.3 158.1C86.1 157.3 87.2 157 87.6 157.5C88.1 158 87.8 159 87 159.8Z" fill="#756659"/>
<path d="M94.4 156.9C93.4 157.4 92.3 157.3 92 156.7C91.7 156.1 92.3 155.2 93.3 154.7C94.3 154.2 95.4 154.3 95.7 154.9C96 155.5 95.5 156.4 94.4 156.9Z" fill="#756659"/>
<path d="M90.5602 153.404C91.3483 152.553 91.593 151.498 91.1067 151.048C90.6205 150.598 89.5874 150.922 88.7993 151.773C88.0112 152.624 87.7666 153.679 88.2528 154.129C88.7391 154.58 89.7721 154.255 90.5602 153.404Z" fill="#756659"/>
<path d="M80 145.1C79.8 146.2 79.2 147.1 78.5 147C77.8 146.9 77.4 145.9 77.6 144.8C77.8 143.7 78.4 142.8 79.1 142.9C79.7 143 80.1 144 80 145.1Z" fill="#756659"/>
<path d="M72.5 154.2C72.7 155.3 72.3 156.3 71.7 156.4C71 156.5 70.3 155.7 70.1 154.6C69.9 153.5 70.3 152.5 70.9 152.4C71.6 152.2 72.3 153.1 72.5 154.2Z" fill="#756659"/>
<path d="M68.7 147.3C69 148.4 68.7 149.4 68 149.6C67.3 149.8 66.6 149 66.3 147.9C66 146.8 66.3 145.8 67 145.6C67.7 145.5 68.4 146.2 68.7 147.3Z" fill="#756659"/>
<path d="M91.9771 166.49C93.124 166.317 93.9738 165.646 93.8751 164.99C93.7764 164.335 92.7667 163.944 91.6197 164.116C90.4728 164.289 89.623 164.96 89.7217 165.616C89.8204 166.271 90.8302 166.662 91.9771 166.49Z" fill="#756659"/>
<path d="M99.7 168.5C98.6 168.3 97.8 167.6 97.9 167C98 166.3 99 166 100.1 166.1C101.2 166.3 102 167 101.9 167.6C101.8 168.3 100.8 168.7 99.7 168.5Z" fill="#756659"/>
<path d="M88.9 175.4C87.9 174.9 87.3 174 87.5 173.4C87.8 172.8 88.8 172.7 89.9 173.2C90.9 173.7 91.5 174.6 91.3 175.2C91.1 175.8 90 175.9 88.9 175.4Z" fill="#756659"/>
<path d="M96.3 179.8C95.5 179 95.2 178 95.6 177.5C96.1 177 97.1 177.2 97.9 178C98.7 178.8 99 179.8 98.6 180.3C98.2 180.8 97.1 180.6 96.3 179.8Z" fill="#756659"/>
<path d="M96.2 175.4C95.1 175 94.5 174.1 94.7 173.5C95 172.9 96 172.7 97.1 173.1C98.2 173.5 98.8 174.4 98.6 175C98.3 175.7 97.2 175.8 96.2 175.4Z" fill="#756659"/>
<path d="M85.6 182.2C84.6 181.7 84 180.8 84.2 180.2C84.4 179.6 85.5 179.5 86.6 180C87.6 180.5 88.2 181.4 88 182C87.8 182.6 86.6 182.6 85.6 182.2Z" fill="#756659"/>
<path d="M90.1 187.3C89.3 186.5 89 185.5 89.4 185C89.9 184.5 90.9 184.7 91.7 185.5C92.5 186.3 92.8 187.3 92.4 187.8C92 188.3 90.9 188 90.1 187.3Z" fill="#756659"/>
<path d="M78.1 187.7C77.7 186.6 77.8 185.6 78.4 185.3C79 185 79.9 185.7 80.3 186.8C80.7 187.9 80.6 188.9 80 189.2C79.4 189.4 78.6 188.7 78.1 187.7Z" fill="#756659"/>
<path d="M78.1 194.5C77.8 193.4 78.1 192.4 78.8 192.2C79.5 192 80.2 192.8 80.5 193.9C80.8 195 80.5 196 79.8 196.2C79.1 196.4 78.3 195.6 78.1 194.5Z" fill="#756659"/>
<path d="M82.6 192.1C82 191.2 81.9 190.1 82.4 189.7C83 189.3 83.9 189.8 84.6 190.7C85.2 191.6 85.3 192.7 84.8 193.1C84.2 193.5 83.2 193 82.6 192.1Z" fill="#756659"/>
<path d="M69.8 185.7C69.9 184.6 70.5 183.7 71.2 183.7C71.9 183.8 72.3 184.7 72.3 185.8C72.2 186.9 71.6 187.8 70.9 187.8C70.2 187.8 69.7 186.8 69.8 185.7Z" fill="#756659"/>
<path d="M66.1 192.8C66.5 191.7 67.4 191.1 68 191.4C68.6 191.7 68.8 192.7 68.3 193.8C67.8 194.9 67 195.5 66.4 195.2C65.8 194.9 65.6 193.8 66.1 192.8Z" fill="#756659"/>
<path d="M61.8 180.8C62.5 179.9 63.5 179.5 64 179.9C64.5 180.3 64.4 181.4 63.7 182.3C63 183.2 62 183.6 61.5 183.2C61 182.7 61.1 181.7 61.8 180.8Z" fill="#756659"/>
<path d="M54 186C54.9 185.4 56 185.3 56.4 185.8C56.8 186.4 56.3 187.3 55.4 188C54.5 188.6 53.4 188.7 53 188.2C52.6 187.6 53.1 186.6 54 186Z" fill="#756659"/>
<path d="M59.5 186.9C60.1 186 61.1 185.5 61.7 185.9C62.3 186.3 62.2 187.4 61.5 188.3C60.9 189.2 59.9 189.7 59.3 189.3C58.8 188.9 58.9 187.8 59.5 186.9Z" fill="#756659"/>
<path d="M58.9 173.2C59.9 172.7 61 172.8 61.3 173.4C61.6 174 61 174.9 60 175.4C59 175.9 57.9 175.8 57.6 175.2C57.3 174.5 57.9 173.7 58.9 173.2Z" fill="#756659"/>
<path d="M51.8 175.8C52.7 175.2 53.8 175.1 54.2 175.7C54.6 176.3 54.1 177.2 53.2 177.9C52.3 178.5 51.2 178.6 50.8 178C50.4 177.4 50.8 176.5 51.8 175.8Z" fill="#756659"/>
<path d="M60 165.3C61.1 165.4 62 166 62 166.7C61.9 167.4 61 167.8 59.8 167.8C58.7 167.7 57.8 167.1 57.8 166.4C57.9 165.7 58.9 165.2 60 165.3Z" fill="#756659"/>
<path d="M53.6 160.3C54.7 160.5 55.5 161.2 55.4 161.9C55.3 162.6 54.3 162.9 53.1 162.7C52 162.5 51.2 161.8 51.3 161.1C51.5 160.4 52.5 160.1 53.6 160.3Z" fill="#756659"/>
<path d="M64.2 157.9C65.2 158.5 65.6 159.5 65.3 160C64.9 160.6 63.9 160.5 62.9 159.9C61.9 159.3 61.5 158.3 61.8 157.8C62.1 157.3 63.2 157.3 64.2 157.9Z" fill="#756659"/>
<path d="M57.3 154C58.3 154.6 58.7 155.6 58.4 156.1C58 156.7 57 156.6 56 156C55 155.4 54.6 154.4 54.9 153.9C55.2 153.3 56.3 153.4 57.3 154Z" fill="#756659"/>
<path d="M61.6 151.7C62.5 152.4 62.8 153.4 62.4 154C62 154.5 60.9 154.4 60 153.6C59.1 152.9 58.8 151.9 59.2 151.3C59.7 150.8 60.8 151 61.6 151.7Z" fill="#756659"/>
<path d="M52.7 165.3C53.8 165.2 54.8 165.7 54.9 166.4C55 167.1 54.1 167.7 53 167.8C51.9 167.9 50.9 167.4 50.8 166.7C50.7 166 51.5 165.3 52.7 165.3Z" fill="#756659"/>
<path d="M98.9 162.9C97.8 163.2 96.8 162.8 96.6 162.2C96.5 161.5 97.2 160.8 98.3 160.6C99.4 160.3 100.4 160.7 100.6 161.3C100.8 161.9 100 162.7 98.9 162.9Z" fill="#756659"/>
<path d="M137 87.9C128.9 82.4 105 70.6 95.7 93C84.9 118.8 79.5 134.6 90.8 145.5C103 157.2 118.3 148.8 144.8 131.6C169.5 115.6 145.5 93.7 137 87.9Z" fill="#FF616C"/>
<path opacity="0.1" d="M142.9 119.6C142 119.9 136.6 122.4 137 123.6C137.4 124.9 143.5 124.3 144.5 124C145.5 123.7 146.5 122.3 146.1 121.1C145.6 119.9 143.8 119.3 142.9 119.6Z" fill="black"/>
<path d="M143 120.6C142.3 120.8 138.1 122.6 138.4 123.3C138.6 124 143.3 123.4 144 123.2C144.7 123 145 122.3 144.7 121.6C144.4 120.8 143.7 120.4 143 120.6Z" fill="#FFEDBD"/>
<path opacity="0.1" d="M108.4 91.2C107.7 91.7 103.6 95.2 104.2 96.1C104.8 97 109.9 94.7 110.7 94.2C111.4 93.7 112.1 92.3 111.4 91.5C110.8 90.6 109.2 90.7 108.4 91.2Z" fill="black"/>
<path d="M108.8 91.9C108.3 92.2 105.1 94.9 105.4 95.3C105.8 95.8 109.6 93.9 110.1 93.6C110.6 93.3 110.7 92.6 110.4 92.1C110 91.7 109.3 91.6 108.8 91.9Z" fill="#FFEDBD"/>
<path opacity="0.1" d="M128.8 121.7C128.2 122.5 125.1 127.9 126.1 128.8C127.1 129.7 131.7 125.6 132.4 124.8C133 124 133.2 122.1 132.2 121.3C131.2 120.4 129.4 120.9 128.8 121.7Z" fill="black"/>
<path d="M129.4 122.5C129 123 126.4 127.1 127 127.6C127.6 128.1 131 124.8 131.4 124.2C131.8 123.7 131.7 122.8 131.2 122.3C130.7 121.9 129.9 121.9 129.4 122.5Z" fill="#FFEDBD"/>
<path opacity="0.1" d="M97.9 132.5C97.1 133.3 93.3 139.3 94.2 140.2C95.1 141.2 100.5 136.7 101.3 135.8C102 134.9 102.4 132.9 101.5 132C100.5 131.1 98.6 131.6 97.9 132.5Z" fill="black"/>
<path d="M98.5 133.4C98 134 94.8 138.4 95.4 139C95.9 139.5 99.9 135.9 100.4 135.4C100.9 134.8 100.9 133.9 100.4 133.4C99.8 132.7 99 132.8 98.5 133.4Z" fill="#FFEDBD"/>
<path opacity="0.1" d="M141.6 109.9C141.2 110.4 139.5 114.1 140.4 114.7C141.2 115.4 144.2 112.7 144.6 112.2C145 111.7 144.9 110.4 144.1 109.8C143.2 109.2 142 109.4 141.6 109.9Z" fill="black"/>
<path d="M142.2 110.5C141.9 110.9 140.5 113.6 141 113.9C141.5 114.3 143.7 112.1 143.9 111.8C144.2 111.4 144 110.9 143.5 110.5C143 110.2 142.4 110.2 142.2 110.5Z" fill="#FFEDBD"/>
<path opacity="0.1" d="M122.8 113.7C122.4 114.2 120.4 118 121.2 118.7C122 119.4 125.3 116.6 125.7 116.1C126.1 115.6 126.1 114.2 125.3 113.6C124.6 112.9 123.3 113.2 122.8 113.7Z" fill="black"/>
<path d="M123.4 114.4C123.1 114.8 121.4 117.6 121.9 118C122.4 118.4 124.7 116.2 125 115.8C125.3 115.4 125.2 114.8 124.7 114.5C124.3 114 123.7 114 123.4 114.4Z" fill="#FFEDBD"/>
<path opacity="0.1" d="M120.7 103.4C120.6 104 120.5 108 121.4 108.2C122.4 108.4 123.9 104.8 124.1 104.2C124.2 103.6 123.7 102.5 122.7 102.2C121.8 102 120.9 102.8 120.7 103.4Z" fill="black"/>
<path d="M121.5 103.7C121.4 104.1 121.2 107.2 121.7 107.3C122.2 107.4 123.3 104.6 123.4 104.1C123.5 103.7 123.1 103.2 122.6 103.1C122.1 103 121.5 103.3 121.5 103.7Z" fill="#FFEDBD"/>
<path opacity="0.1" d="M114.7 121.6C114.3 122.2 112.3 126.3 113.1 127C113.9 127.7 117.2 124.6 117.7 124C118.1 123.4 118.1 122 117.3 121.3C116.4 120.7 115.1 121 114.7 121.6Z" fill="black"/>
<path d="M115.2 122.2C114.9 122.6 113.2 125.7 113.7 126.1C114.2 126.5 116.6 124 116.9 123.6C117.2 123.2 117.1 122.6 116.6 122.2C116.1 121.8 115.5 121.8 115.2 122.2Z" fill="#FFEDBD"/>
<path opacity="0.1" d="M123 96C122.4 96.1 118.6 97.2 118.7 98.1C118.8 99 122.9 99.3 123.5 99.2C124.2 99.1 125 98.3 124.9 97.4C124.8 96.5 123.6 96 123 96Z" fill="black"/>
<path d="M123 96.7C122.6 96.8 119.6 97.5 119.7 98C119.8 98.5 122.9 98.6 123.3 98.5C123.8 98.4 124 98 124 97.5C123.9 97 123.4 96.7 123 96.7Z" fill="#FFEDBD"/>
<path opacity="0.1" d="M113.4 110.2C112.9 110.6 110.1 113.9 110.8 114.6C111.4 115.4 115.2 113.4 115.7 112.9C116.2 112.5 116.5 111.2 115.9 110.4C115.3 109.7 113.9 109.7 113.4 110.2Z" fill="black"/>
<path d="M113.8 110.8C113.4 111.1 111.2 113.5 111.6 113.9C112 114.3 114.8 112.7 115.1 112.3C115.5 112 115.5 111.4 115.1 111C114.8 110.6 114.2 110.5 113.8 110.8Z" fill="#FFEDBD"/>
<path opacity="0.1" d="M99 110.5C98.7 111.1 97.4 115.2 98.3 115.7C99.2 116.1 101.9 112.7 102.2 112.1C102.5 111.5 102.3 110.2 101.4 109.8C100.5 109.3 99.3 109.9 99 110.5Z" fill="black"/>
<path d="M99.6 111C99.4 111.4 98.2 114.5 98.7 114.8C99.2 115 101.1 112.3 101.4 111.9C101.6 111.5 101.4 110.9 100.9 110.7C100.5 110.4 99.9 110.5 99.6 111Z" fill="#FFEDBD"/>
<path opacity="0.1" d="M109 85.8C108.4 85.9 104.7 86.9 104.8 87.7C104.9 88.5 108.7 88.8 109.4 88.7C110 88.6 110.9 87.9 110.8 87.1C110.7 86.3 109.6 85.8 109 85.8Z" fill="black"/>
<path d="M109 86.5C108.6 86.5 105.7 87.2 105.7 87.7C105.8 88.2 108.7 88.2 109.2 88.2C109.6 88.2 109.9 87.7 109.9 87.3C109.8 86.7 109.4 86.4 109 86.5Z" fill="#FFEDBD"/>
<path opacity="0.1" d="M111.3 100C110.9 100.5 109 104 109.8 104.5C110.6 105.1 113.7 102.5 114.1 102C114.5 101.5 114.5 100.3 113.7 99.7C112.9 99.2 111.7 99.5 111.3 100Z" fill="black"/>
<path d="M111.8 100.5C111.5 100.8 110 103.4 110.4 103.8C110.8 104.1 113.1 102 113.4 101.7C113.7 101.4 113.6 100.8 113.1 100.5C112.7 100.1 112.1 100.1 111.8 100.5Z" fill="#FFEDBD"/>
<path opacity="0.1" d="M122.5 133.6C121.8 133.7 117.4 135.2 117.6 136.4C117.8 137.6 122.4 137.9 123.2 137.8C124 137.7 124.9 136.6 124.8 135.4C124.5 134.3 123.2 133.5 122.5 133.6Z" fill="black"/>
<path d="M122.5 134.6C122 134.7 118.6 135.7 118.7 136.3C118.8 137 122.4 137 122.9 136.9C123.4 136.8 123.8 136.2 123.7 135.6C123.5 135 123 134.5 122.5 134.6Z" fill="#FFEDBD"/>
<path opacity="0.1" d="M108.4 137.4C107.8 137.9 104.4 141.6 105.1 142.6C105.7 143.6 110.1 141.4 110.7 141C111.3 140.5 111.8 139 111.1 138C110.5 137 109 137 108.4 137.4Z" fill="black"/>
<path d="M108.8 138.3C108.4 138.6 105.7 141.3 106 141.9C106.4 142.5 109.6 140.6 110.1 140.3C110.5 140 110.6 139.2 110.2 138.7C109.9 138.1 109.2 138 108.8 138.3Z" fill="#FFEDBD"/>
<path opacity="0.1" d="M103.2 120.2C102.7 120.8 100.4 124.7 101.1 125.4C101.9 126.1 105.5 123.3 106 122.7C106.5 122.1 106.6 120.7 105.8 120C105 119.4 103.7 119.7 103.2 120.2Z" fill="black"/>
<path d="M103.7 120.9C103.4 121.3 101.4 124.2 101.9 124.6C102.3 125 105 122.7 105.3 122.3C105.6 121.9 105.6 121.3 105.1 120.9C104.6 120.5 104 120.5 103.7 120.9Z" fill="#FFEDBD"/>
<path opacity="0.1" d="M98.9 99.6C98.4 100.1 96.2 103.4 96.9 104C97.6 104.6 101 102.2 101.4 101.7C101.9 101.2 102 100 101.3 99.4C100.6 98.9 99.4 99.2 98.9 99.6Z" fill="black"/>
<path d="M99.4 100.2C99.1 100.5 97.2 103 97.6 103.4C98 103.7 100.5 101.8 100.8 101.4C101.1 101.1 101.1 100.5 100.7 100.2C100.3 99.9 99.7 99.9 99.4 100.2Z" fill="#FFEDBD"/>
<path opacity="0.1" d="M90.5 120.2C90.5 120.9 91.7 125.2 92.7 125.1C93.8 124.9 94.3 120.4 94.2 119.7C94.1 119 93.2 118 92.2 118.2C91.3 118.2 90.5 119.4 90.5 120.2Z" fill="black"/>
<path d="M91.4 120.2C91.4 120.7 92.2 124 92.7 124C93.3 123.9 93.5 120.4 93.5 119.9C93.5 119.4 93 119.1 92.4 119.2C91.8 119.2 91.3 119.7 91.4 120.2Z" fill="#FFEDBD"/>
<path opacity="0.1" d="M131.5 109.8C131.3 110.4 130.9 114.6 131.9 114.9C132.9 115.3 134.8 111.7 135 111C135.2 110.4 134.7 109.1 133.8 108.8C132.8 108.5 131.7 109.1 131.5 109.8Z" fill="black"/>
<path d="M132.2 110.2C132.1 110.6 131.6 113.8 132.1 114C132.6 114.2 134 111.4 134.1 110.9C134.2 110.5 133.9 109.9 133.4 109.8C132.9 109.5 132.4 109.7 132.2 110.2Z" fill="#FFEDBD"/>
<path opacity="0.15" d="M88.6 142.9C88.2 142.4 87.8 141.9 87.5 141.3C87.4 141.1 87.3 140.9 87.2 140.8C86.8 140.1 86.5 139.4 86.2 138.7C86.1 138.5 86 138.2 85.9 137.9C85.7 137.4 85.6 136.9 85.4 136.4C85.3 136.1 85.2 135.8 85.2 135.5C85.1 134.9 85 134.3 84.9 133.8C84.8 133.3 84.8 132.8 84.8 132.4C84.8 131.9 84.7 131.4 84.7 130.9C84.7 130.5 84.7 130 84.7 129.6C84.7 129.2 84.7 128.8 84.8 128.4C84.9 127.4 85 126.4 85.1 125.3C85.1 125.1 85.2 124.9 85.2 124.6C85.3 124 85.4 123.4 85.5 122.7C85.6 122.4 85.6 122.1 85.7 121.8C85.8 121.1 86 120.5 86.2 119.8C86.2 119.7 86.2 119.7 86.2 119.6C86.6 118 87 116.4 87.6 114.7C87.6 114.6 87.6 114.6 87.7 114.5C88 113.6 88.3 112.8 88.5 111.9C87.6 123 89.7 130.6 97.4 135.5C110.9 144.4 124 134.5 145.7 115.4C146.5 114.7 147.2 114 147.8 113.3C145.9 111.2 144 108.9 142.4 106.5C138.9 101.4 136.7 96.5 135.7 92L135.4 91.8C135.6 94.8 135 98.2 133.6 101.6C132.1 105.4 129.8 108.7 127.1 111C126.7 107.2 127.4 103 129.1 98.9C130.5 95.7 132.3 93.1 134.4 91.1C131.8 92.8 128.4 94.1 124.4 94.8C120.2 95.5 116.2 95.4 112.8 94.6C115.7 92.6 119.6 91 124 90.3C124.4 90.2 124.8 90.2 125.1 90.1C122.4 89.6 119.6 88.9 116.9 88C112.1 86.3 108 84.1 104.8 81.7C106.2 80.9 107.6 80.4 109 80C112.6 80.3 116.4 81.1 120.3 82.4C123 83.3 125.6 84.5 127.9 85.7C130.5 86.7 133.7 87.7 134.8 87C134.9 86.9 135.1 86.8 135.2 86.6C135.8 87 136.4 87.4 136.9 87.7C137.4 88 138 88.4 138.5 88.9C138.4 89.1 138.3 89.3 138.2 89.4C137.7 90.8 140.8 94.4 142.9 96.6C143.4 97.1 143.9 97.6 144.4 98.1C144.5 98.2 144.6 98.3 144.6 98.3H144.5C146.1 100 147.6 101.8 149 103.8C149.9 105 150.7 106.2 151.4 107.5C151.9 106.5 152.2 105.5 152.4 104.5C152.9 105.3 153.3 106.2 153.6 107.1C154.7 109.8 155.3 112.5 155.3 115.3C155.3 116.7 155 118.2 154.6 119.6C154.3 120.5 153.9 121.4 153.5 122.2C153.4 122.4 153.3 122.5 153.3 122.7C153.1 123 152.9 123.4 152.7 123.7C152.6 123.9 152.4 124.1 152.3 124.3C152.1 124.6 151.9 124.9 151.6 125.2C151.4 125.5 151.2 125.7 151 126C150.8 126.3 150.5 126.5 150.3 126.8C150 127.1 149.7 127.4 149.4 127.7C149.2 127.9 148.9 128.2 148.7 128.4C148.3 128.7 147.9 129.1 147.5 129.4C147.3 129.6 147.1 129.8 146.8 130C146.1 130.5 145.4 131 144.6 131.5C118.1 148.7 102.8 157.1 90.6 145.4C89.9 144.8 89.4 144.1 88.8 143.5C88.9 143.3 88.8 143.1 88.6 142.9Z" fill="black"/>
<path d="M122.2 80.1C124.9 81 127.4 82.1 129.8 83.4C132.4 84.4 135.6 85.4 136.6 84.7C138.4 83.5 140.4 77.7 140.4 77.7C140.4 77.7 141.2 77.4 143.5 78.9L144 79.2C146.4 80.7 146.3 81.5 146.3 81.5C146.3 81.5 140.8 85.1 140.1 87C139.6 88.3 142.7 91.9 144.8 94C145.3 94.5 145.8 95 146.3 95.5C146.4 95.6 146.5 95.7 146.5 95.7H146.4C147.9 97.3 149.5 99.1 150.9 101.1C155 106.7 157.9 112.8 159.3 118.4C153.8 115 148.4 109.8 144 103.6C140.6 98.7 138.3 93.8 137.3 89.5L137 89.3C137.2 92.2 136.7 95.5 135.3 98.9C133.8 102.6 131.6 105.8 129 108.1C128.6 104.4 129.2 100.2 130.9 96.3C132.2 93.2 134 90.6 136.1 88.7C133.5 90.3 130.2 91.6 126.2 92.3C122.1 93 118.1 92.8 114.8 92.1C117.6 90.1 121.5 88.6 125.8 87.9C126.2 87.8 126.6 87.8 126.9 87.7C124.2 87.3 121.5 86.6 118.7 85.6C112.9 83.6 108 80.8 104.7 77.7C109.9 77.2 116 78 122.2 80.1Z" fill="#007D70"/>
<path d="M125.7 152.5C125.7 152.5 154.2 158.6 145.1 193.9C145.1 193.9 114.1 180.8 125.7 152.5Z" fill="#00A291"/>
<path opacity="0.05" d="M123.1 163.9C122.5 184.3 145.1 193.9 145.1 193.9C146.2 189.5 146.8 185.5 146.9 181.9C141.3 180.4 128.4 175.7 123.1 163.9Z" fill="black"/>
<path d="M151.3 258.1C162.6 243 167 229.2 160.2 211.5C153.4 193.8 160.9 192.2 154.1 187C147.2 181.8 147.8 189.5 128.9 188C110 186.4 97.9 194.6 86.6 209.6C75.3 224.7 70.9 238.5 77.7 256.2C84.5 273.9 77 275.5 83.8 280.7C90.7 285.9 90.1 278.2 109 279.7C127.9 281.3 140 273.1 151.3 258.1Z" fill="#FFD54D"/>
<path opacity="0.05" d="M159.9 211.7C159.1 209.6 158.5 207.8 158.1 206.2C158.2 206.8 158.3 207.4 158.4 208.1C162 226.7 155.3 239.6 141.6 252.5C127.9 265.4 114.6 271.3 96.2 266.5C87.8 264.3 83.1 264.7 79.9 265.2C81.7 274.9 78 276.8 83.5 281C90.4 286.2 89.8 278.5 108.7 280C127.6 281.6 139.7 273.4 151 258.4C162.3 243.3 166.7 229.4 159.9 211.7Z" fill="black"/>
<path d="M72 247C75.9 244.2 88.3 238 91.1 251.9C93.7 265.1 94.7 271.9 89.6 275.6C84.5 279.3 79.1 275.8 68.9 268.1C58.2 259.8 68.1 249.8 72 247Z" fill="#FF616C"/>
<path opacity="0.1" d="M69.6 262.9C70 263.1 72.2 264.4 72.1 264.9C71.9 265.4 69.4 264.9 69 264.8C68.6 264.6 68.1 264 68.3 263.5C68.4 262.9 69.2 262.7 69.6 262.9Z" fill="black"/>
<path d="M69.5001 263.3C69.8001 263.4 71.5001 264.4 71.4001 264.7C71.3001 265 69.4001 264.5 69.1001 264.4C68.8001 264.3 68.7001 264 68.8001 263.7C68.9001 263.3 69.2001 263.2 69.5001 263.3Z" fill="#FFEDBD"/>
<path opacity="0.1" d="M85.3001 250.2C85.6001 250.5 87.3001 252.6 86.9001 253.1C86.6001 253.5 84.4 252.1 84.1 251.8C83.8 251.5 83.6001 250.7 83.9001 250.3C84.3001 249.8 85.0001 249.9 85.3001 250.2Z" fill="black"/>
<path d="M85.1001 250.6C85.3001 250.8 86.6001 252.4 86.5001 252.6C86.3001 252.8 84.7001 251.6 84.4001 251.4C84.2001 251.2 84.2001 250.8 84.3001 250.6C84.6001 250.4 84.9001 250.4 85.1001 250.6Z" fill="#FFEDBD"/>
<path opacity="0.1" d="M75.4001 264.4C75.7001 264.8 76.8001 267.2 76.4001 267.6C76.0001 267.9 74.1001 266 73.9001 265.6C73.6001 265.2 73.6001 264.4 74.0001 264.1C74.4001 263.7 75.2001 264 75.4001 264.4Z" fill="black"/>
<path d="M75.1001 264.7C75.3001 265 76.2001 266.8 76.0001 267C75.8001 267.2 74.4001 265.6 74.2001 265.4C74.0001 265.1 74.1001 264.8 74.3001 264.6C74.6001 264.4 75.0001 264.5 75.1001 264.7Z" fill="#FFEDBD"/>
<path opacity="0.1" d="M87.6001 270.2C87.9001 270.6 89.0001 273 88.6001 273.4C88.2001 273.7 86.3001 271.8 86.1001 271.4C85.8001 271 85.8001 270.2 86.2001 269.9C86.6001 269.6 87.3001 269.9 87.6001 270.2Z" fill="black"/>
<path d="M87.3001 270.6C87.5001 270.9 88.4001 272.7 88.2001 272.9C88.0001 273.1 86.6001 271.5 86.4001 271.3C86.2001 271 86.3001 270.7 86.5001 270.5C86.8001 270.3 87.1001 270.3 87.3001 270.6Z" fill="#FFEDBD"/>
<path opacity="0.1" d="M70 258.4C70.2 258.7 70.9 260.5 70.6 260.7C70.2 261 68.9 259.6 68.8 259.3C68.6 259 68.7 258.4 69 258.1C69.3 257.9 69.9 258.1 70 258.4Z" fill="black"/>
<path d="M69.8001 258.7C69.9001 258.9 70.6001 260.2 70.4001 260.4C70.2001 260.6 69.2 259.4 69.1 259.3C69 259.1 69 258.8 69.2 258.7C69.4 258.4 69.7001 258.5 69.8001 258.7Z" fill="#FFEDBD"/>
<path opacity="0.1" d="M78.1001 261C78.3001 261.3 79.0001 263.1 78.7001 263.3C78.3001 263.6 77.0001 262.2 76.9001 261.9C76.7001 261.6 76.8001 261 77.1001 260.7C77.4001 260.6 77.9001 260.8 78.1001 261Z" fill="black"/>
<path d="M77.8001 261.3C77.9001 261.5 78.6001 262.8 78.3001 263C78.1001 263.2 77.1001 262 77.0001 261.9C76.9001 261.7 76.9001 261.4 77.1001 261.3C77.4001 261.1 77.7001 261.1 77.8001 261.3Z" fill="#FFEDBD"/>
<path opacity="0.1" d="M79.3001 256.1C79.3001 256.4 79.3001 258.4 78.8001 258.5C78.4001 258.6 77.8001 256.7 77.7001 256.4C77.7001 256.1 77.9001 255.5 78.4001 255.5C78.8001 255.4 79.2001 255.8 79.3001 256.1Z" fill="black"/>
<path d="M78.9001 256.2C78.9001 256.4 78.9001 257.9 78.7001 258C78.5001 258 78.1001 256.6 78.0001 256.4C78.0001 256.2 78.1001 256 78.4001 255.9C78.7001 255.9 78.9001 256 78.9001 256.2Z" fill="#FFEDBD"/>
<path opacity="0.1" d="M81.3001 265C81.5001 265.3 82.1 267.1 81.7 267.4C81.3 267.6 80.1001 266.2 79.9001 265.9C79.7001 265.6 79.8 265 80.2 264.8C80.6 264.5 81.1001 264.7 81.3001 265Z" fill="black"/>
<path d="M81 265.2C81.1 265.4 81.7 266.8 81.5 266.9C81.3 267 80.4 265.9 80.3 265.7C80.2 265.5 80.3 265.2 80.5 265.1C80.6 265 80.9 265 81 265.2Z" fill="#FFEDBD"/>
<path opacity="0.1" d="M78.4 252.2C78.7 252.3 80.4 253.1 80.3 253.5C80.2 254 78.4 253.9 78.1 253.8C77.8 253.7 77.4 253.3 77.5 252.8C77.6 252.4 78.1 252.1 78.4 252.2Z" fill="black"/>
<path d="M78.4 252.5C78.6 252.5 79.9 253.1 79.9 253.3C79.8 253.6 78.4 253.4 78.2 253.4C78 253.4 77.9 253.1 77.9 252.8C78 252.7 78.2 252.5 78.4 252.5Z" fill="#FFEDBD"/>
<path opacity="0.1" d="M82.2 259.8C82.4 260 83.4 261.7 83.1 262C82.8 262.3 81.3 261.2 81.1 261C80.9 260.8 80.8 260.2 81.1 259.8C81.4 259.5 82 259.5 82.2 259.8Z" fill="black"/>
<path d="M82.0001 260.1C82.1001 260.3 83.0001 261.5 82.8001 261.7C82.6001 261.9 81.5001 261 81.4001 260.8C81.3001 260.6 81.3001 260.4 81.4001 260.2C81.6001 259.9 81.9001 259.9 82.0001 260.1Z" fill="#FFEDBD"/>
<path opacity="0.1" d="M88.4 260.6C88.5 260.9 88.8 262.9 88.4 263C88 263.2 87.1 261.5 87 261.2C86.9 260.9 87.1 260.3 87.5 260.1C87.8 259.9 88.3 260.3 88.4 260.6Z" fill="black"/>
<path d="M88.1001 260.8C88.2001 261 88.5001 262.5 88.2001 262.6C88.0001 262.7 87.3001 261.3 87.2001 261.1C87.1001 260.9 87.3001 260.6 87.5001 260.6C87.8001 260.5 88.0001 260.6 88.1001 260.8Z" fill="#FFEDBD"/>
<path opacity="0.1" d="M85.4 247.2C85.7 247.3 87.4 248.1 87.3 248.5C87.2 249 85.4 248.9 85.1 248.8C84.8 248.7 84.4 248.3 84.5 247.8C84.6 247.4 85.1 247.1 85.4 247.2Z" fill="black"/>
<path d="M85.4 247.5C85.6 247.5 86.9 248.1 86.9 248.3C86.8 248.6 85.4 248.4 85.2 248.4C85 248.4 84.9 248.1 84.9 247.8C85 247.7 85.2 247.5 85.4 247.5Z" fill="#FFEDBD"/>
<path opacity="0.1" d="M83.6001 254.8C83.8001 255.1 84.4001 256.9 84.1001 257.2C83.7001 257.4 82.5001 256 82.3001 255.7C82.1001 255.4 82.2001 254.8 82.6001 254.6C82.9001 254.3 83.4001 254.5 83.6001 254.8Z" fill="black"/>
<path d="M83.3001 255C83.4001 255.2 84.0001 256.6 83.8001 256.7C83.6001 256.8 82.7001 255.7 82.6001 255.5C82.5001 255.3 82.6001 255 82.8001 254.9C83.0001 254.8 83.2001 254.8 83.3001 255Z" fill="#FFEDBD"/>
<path opacity="0.1" d="M77.8001 269.7C78.1001 269.8 79.8001 270.6 79.7001 271C79.6001 271.5 77.8001 271.4 77.5001 271.3C77.2001 271.2 76.8001 270.8 76.9001 270.3C77.0001 269.9 77.5001 269.6 77.8001 269.7Z" fill="black"/>
<path d="M77.8 270.1C78 270.1 79.3 270.7 79.3 270.9C79.2 271.2 77.8 271 77.6 271C77.4 271 77.3 270.7 77.3 270.4C77.4 270.2 77.6 270 77.8 270.1Z" fill="#FFEDBD"/>
<path opacity="0.1" d="M83.2 271.8C83.4 272 84.6 273.6 84.3001 273.9C84.0001 274.3 82.4 273.3 82.2 273.1C82 272.9 81.9 272.3 82.1 271.9C82.4 271.5 83 271.6 83.2 271.8Z" fill="black"/>
<path d="M83.0001 272.1C83.2001 272.2 84.1001 273.4 83.9001 273.6C83.7001 273.8 82.6001 273 82.4001 272.8C82.2001 272.7 82.2001 272.4 82.4001 272.2C82.6001 272 82.9001 272 83.0001 272.1Z" fill="#FFEDBD"/>
<path opacity="0.1" d="M86.1 264.8C86.3 265.1 87 266.9 86.7 267.1C86.3 267.4 85 266 84.9 265.7C84.7 265.4 84.7 264.8 85.1 264.5C85.4 264.4 85.9 264.6 86.1 264.8Z" fill="black"/>
<path d="M85.8001 265.1C85.9001 265.3 86.6001 266.6 86.4001 266.8C86.2001 267 85.2 265.8 85.1 265.7C85 265.5 85 265.2 85.2 265.1C85.5 264.9 85.7001 264.9 85.8001 265.1Z" fill="#FFEDBD"/>
<path opacity="0.1" d="M89.2 255.2C89.4 255.5 90.1 257.3 89.8 257.5C89.4 257.8 88.1 256.4 88 256.1C87.8 255.8 87.8 255.2 88.2 254.9C88.4 254.8 89 255 89.2 255.2Z" fill="black"/>
<path d="M88.9 255.5C89 255.7 89.7 257 89.5 257.2C89.3 257.4 88.3 256.2 88.2 256.1C88.1 255.9 88.1 255.6 88.3 255.5C88.5 255.3 88.8 255.3 88.9 255.5Z" fill="#FFEDBD"/>
<path opacity="0.1" d="M91.3001 265.3C91.2001 265.6 90.5001 267.4 90.0001 267.3C89.6001 267.2 89.7001 265.2 89.7001 264.9C89.8001 264.6 90.2001 264.2 90.6001 264.3C91.0001 264.4 91.4001 265 91.3001 265.3Z" fill="black"/>
<path d="M91.0001 265.3C91.0001 265.5 90.4001 266.9 90.2001 266.9C90.0001 266.8 90.1001 265.3 90.2001 265.1C90.2001 264.9 90.5001 264.8 90.7001 264.8C90.9001 264.9 91.0001 265.1 91.0001 265.3Z" fill="#FFEDBD"/>
<path opacity="0.1" d="M74.4001 258.8C74.5001 259.1 74.6001 261.1 74.2001 261.2C73.8001 261.3 73.0001 259.5 72.9001 259.2C72.8001 258.9 73.0001 258.3 73.5001 258.2C73.9001 258.1 74.3001 258.5 74.4001 258.8Z" fill="black"/>
<path d="M74.1 258.9C74.2 259.1 74.3 260.6 74.1 260.7C73.9 260.8 73.3 259.4 73.3 259.2C73.3 259 73.4 258.7 73.6 258.7C73.8 258.6 74 258.7 74.1 258.9Z" fill="#FFEDBD"/>
<path opacity="0.15" d="M90.5 274.7C90.7 274.5 90.9 274.3 91 274.1C91.1 274 91.1 274 91.2 273.9C91.4 273.7 91.6 273.4 91.7 273.1C91.8 273 91.8 272.9 91.9 272.8C92 272.6 92.1 272.4 92.2 272.2C92.3 272.1 92.3 272 92.4 271.8C92.5 271.6 92.6 271.4 92.6 271.1C92.7 270.9 92.7 270.7 92.8 270.5C92.9 270.3 92.9 270.1 92.9 269.9C92.9 269.7 93 269.5 93 269.4C93 269.2 93 269.1 93.1 268.9C93.2 268.5 93.2 268.1 93.2 267.6C93.2 267.5 93.2 267.4 93.2 267.3C93.2 267 93.2 266.8 93.2 266.5C93.2 266.4 93.2 266.2 93.2 266.1C93.2 265.8 93.2 265.5 93.2 265.2C93.2 265.2 93.2 265.2 93.2 265.1C93.2 264.4 93.1 263.6 93 262.9V262.8C93 262.4 92.9 262 92.8 261.6C92.3 266.6 90.9 269.7 87.6 271.4C82 274.3 77.2 269.9 68.3 260.7C68 260.3 67.6 260 67.4 259.6C68.2 258.7 69 257.7 69.7 256.5C71.2 254.1 72.2 251.6 72.7 249.2L72.8 249.1C72.7 250.7 72.9 252.6 73.6 254.5C74.3 256.5 75.2 258.2 76.3 259.5C76.5 257.7 76.3 255.5 75.6 253.3C75 251.5 74.2 250 73.3 248.8C74.5 249.9 76.1 250.8 77.9 251.3C79.8 251.9 81.6 252 83.2 251.7C82 250.4 80.2 249.4 78.2 248.8C78 248.7 77.8 248.7 77.7 248.7C79 248.6 80.3 248.3 81.6 247.9C83.9 247.2 86 246.1 87.7 244.8C87.1 244.3 86.4 243.9 85.8 243.6C84 243.6 82.1 243.9 80.2 244.5C78.9 244.9 77.6 245.4 76.4 246.1C75.1 246.6 73.6 247 73.1 246.5C73 246.4 73 246.3 72.9 246.2C72.6 246.4 72.3 246.6 72.1 246.8C71.9 247 71.6 247.2 71.3 247.4C71.4 247.5 71.4 247.6 71.4 247.7C71.6 248.5 70.2 250.4 69.3 251.5C69.1 251.7 68.8 252 68.6 252.3C68.5 252.4 68.5 252.4 68.5 252.4C67.8 253.2 67.2 254.1 66.6 255.1C66.2 255.7 65.9 256.3 65.6 256.8C65.4 256.3 65.2 255.7 65.1 255.2C64.9 255.6 64.8 256 64.6 256.4C64.2 257.7 64 259 64.1 260.3C64.2 261 64.3 261.7 64.5 262.3C64.6 262.7 64.8 263.1 65 263.5C65 263.6 65.1 263.6 65.1 263.7C65.2 263.9 65.3 264 65.4 264.2C65.5 264.3 65.5 264.4 65.6 264.5C65.7 264.6 65.8 264.8 65.9 264.9C66 265 66.1 265.1 66.2 265.3C66.3 265.4 66.4 265.5 66.5 265.7C66.6 265.8 66.7 266 66.9 266.1C67 266.2 67.1 266.3 67.2 266.4C67.4 266.6 67.5 266.7 67.7 266.9C67.8 267 67.9 267.1 68 267.2C68.3 267.4 68.6 267.7 68.9 267.9C79.1 275.6 84.5 279.2 89.6 275.4C89.9 275.2 90.1 275 90.4 274.7C90.4 274.8 90.5 274.7 90.5 274.7Z" fill="black"/>
<path d="M79.3 243C78 243.4 76.7 243.9 75.5 244.6C74.2 245.1 72.7 245.5 72.2 245C71.3 244.2 70.3 240.5 70.3 240.5C70.3 240.5 69.9 240.3 68.8 241.1L68.5 241.3C67.4 242.1 67.4 242.6 67.4 242.6C67.4 242.6 70.1 245 70.5 246.2C70.7 247 69.3 248.9 68.4 250C68.2 250.2 67.9 250.5 67.7 250.8C67.6 250.9 67.6 250.9 67.6 250.9C66.9 251.7 66.3 252.6 65.7 253.6C64 256.3 63 259.1 62.5 261.7C64.7 260.3 67 258.1 68.8 255.2C70.3 252.8 71.3 250.3 71.8 247.9L71.9 247.8C71.8 249.4 72 251.3 72.7 253.2C73.4 255.2 74.3 256.9 75.4 258.2C75.6 256.4 75.4 254.2 74.7 252C74.1 250.2 73.3 248.7 72.4 247.5C73.6 248.6 75.2 249.5 77 250C78.9 250.6 80.7 250.7 82.3 250.4C81.1 249.1 79.3 248.1 77.3 247.5C77.1 247.4 76.9 247.4 76.8 247.4C78.1 247.3 79.4 247 80.7 246.6C83.6 245.7 86.1 244.3 87.9 242.6C85.4 241.9 82.4 242.1 79.3 243Z" fill="#007D70"/>
<path d="M149.8 257.3C146.8 251.7 135.6 237.4 123.8 252.4C112.6 266.6 107.4 274.2 111.3 281.6C115.2 288.9 123.9 287.8 140.9 284.3C158.8 280.5 152.8 262.9 149.8 257.3Z" fill="#FF616C"/>
<path opacity="0.1" d="M143.1 277.7C142.5 277.7 139 278 138.9 278.8C138.8 279.5 142.1 280.3 142.7 280.4C143.3 280.4 144.2 279.9 144.3 279.2C144.5 278.4 143.7 277.7 143.1 277.7Z" fill="black"/>
<path d="M143 278.3C142.6 278.3 139.9 278.4 139.8 278.9C139.7 279.3 142.4 279.8 142.8 279.8C143.2 279.8 143.6 279.5 143.6 279.1C143.6 278.6 143.4 278.3 143 278.3Z" fill="#FFEDBD"/>
<path opacity="0.1" d="M131.7 253.7C131.1 253.9 127.8 255.5 128 256.2C128.1 256.9 131.7 256.4 132.2 256.2C132.8 256 133.5 255.2 133.4 254.5C133.3 253.8 132.3 253.5 131.7 253.7Z" fill="black"/>
<path d="M131.7 254.2C131.3 254.3 128.7 255.5 128.8 255.9C128.9 256.3 131.6 255.8 132 255.7C132.4 255.6 132.6 255.2 132.6 254.8C132.5 254.3 132.1 254.1 131.7 254.2Z" fill="#FFEDBD"/>
<path opacity="0.1" d="M135.1 276.2C134.6 276.5 131.7 278.8 132 279.4C132.3 280 135.7 278.8 136.2 278.5C136.7 278.2 137.3 277.2 137 276.6C136.7 276 135.7 275.9 135.1 276.2Z" fill="black"/>
<path d="M135.3 276.8C134.9 277 132.6 278.7 132.8 279C133 279.4 135.6 278.3 135.9 278.1C136.3 277.9 136.4 277.4 136.3 277.1C136.1 276.7 135.6 276.6 135.3 276.8Z" fill="#FFEDBD"/>
<path opacity="0.1" d="M116.9 276.3C116.4 276.6 113.5 278.9 113.8 279.5C114.1 280.1 117.5 278.9 118 278.6C118.5 278.3 119.1 277.3 118.8 276.7C118.5 276.1 117.4 276 116.9 276.3Z" fill="black"/>
<path d="M117 276.9C116.6 277.1 114.3 278.8 114.5 279.1C114.7 279.5 117.3 278.4 117.6 278.2C118 278 118.1 277.5 118 277.2C117.8 276.8 117.4 276.7 117 276.9Z" fill="#FFEDBD"/>
<path opacity="0.1" d="M145.3 272.1C144.9 272.3 142.9 274.1 143.2 274.6C143.5 275.1 145.9 274.2 146.3 274C146.7 273.8 147 273 146.8 272.5C146.4 272 145.7 271.9 145.3 272.1Z" fill="black"/>
<path d="M145.4 272.5C145.1 272.7 143.6 273.9 143.7 274.2C143.8 274.5 145.7 273.7 145.9 273.5C146.2 273.3 146.2 273 146.1 272.7C146 272.5 145.7 272.4 145.4 272.5Z" fill="#FFEDBD"/>
<path opacity="0.1" d="M134 270.7C133.6 270.9 131.6 272.7 131.9 273.2C132.2 273.7 134.6 272.8 135 272.6C135.4 272.4 135.7 271.6 135.5 271.1C135.1 270.6 134.3 270.5 134 270.7Z" fill="black"/>
<path d="M134.1 271.2C133.8 271.4 132.3 272.6 132.4 272.9C132.5 273.2 134.4 272.4 134.6 272.2C134.9 272 134.9 271.7 134.8 271.4C134.7 271.1 134.4 271 134.1 271.2Z" fill="#FFEDBD"/>
<path opacity="0.1" d="M135.5 264.2C135.3 264.6 134.1 267 134.6 267.3C135.1 267.6 136.9 265.7 137.2 265.4C137.4 265 137.4 264.2 137 263.9C136.5 263.5 135.8 263.8 135.5 264.2Z" fill="black"/>
<path d="M135.8 264.5C135.6 264.8 134.7 266.6 135 266.8C135.3 267 136.6 265.5 136.8 265.2C137 264.9 136.9 264.6 136.6 264.4C136.4 264.2 136 264.2 135.8 264.5Z" fill="#FFEDBD"/>
<path opacity="0.1" d="M127.7 273.6C127.3 273.8 125.4 275.7 125.7 276.2C126 276.7 128.4 275.7 128.7 275.4C129.1 275.2 129.4 274.4 129.1 273.9C128.8 273.4 128.1 273.4 127.7 273.6Z" fill="black"/>
<path d="M127.9 274C127.7 274.2 126.1 275.5 126.3 275.8C126.5 276.1 128.3 275.2 128.5 275C128.7 274.8 128.8 274.5 128.7 274.2C128.4 274 128.1 273.9 127.9 274Z" fill="#FFEDBD"/>
<path opacity="0.1" d="M138.9 259.9C138.5 259.8 136 259.8 135.8 260.4C135.6 261 137.9 262 138.3 262.1C138.7 262.2 139.4 261.8 139.6 261.2C139.8 260.6 139.3 260 138.9 259.9Z" fill="black"/>
<path d="M138.7 260.3C138.4 260.2 136.5 260.1 136.4 260.5C136.3 260.8 138.1 261.5 138.3 261.5C138.6 261.6 138.9 261.3 139 261C139.1 260.7 139 260.4 138.7 260.3Z" fill="#FFEDBD"/>
<path opacity="0.1" d="M129.7 266.8C129.3 267 127.1 268.3 127.2 268.9C127.4 269.5 129.9 269 130.3 268.9C130.7 268.7 131.2 268.1 131 267.5C130.8 266.9 130.1 266.7 129.7 266.8Z" fill="black"/>
<path d="M129.8 267.3C129.5 267.4 127.8 268.4 127.9 268.7C128 269 129.9 268.6 130.2 268.5C130.5 268.4 130.6 268 130.5 267.7C130.3 267.4 130 267.2 129.8 267.3Z" fill="#FFEDBD"/>
<path opacity="0.1" d="M121.8 264.3C121.5 264.6 120 266.8 120.3 267.2C120.7 267.6 122.9 266.1 123.2 265.8C123.5 265.5 123.7 264.7 123.3 264.3C122.9 263.9 122.1 264 121.8 264.3Z" fill="black"/>
<path d="M122 264.7C121.8 264.9 120.5 266.5 120.8 266.8C121 267 122.6 265.8 122.9 265.6C123.2 265.4 123.1 265 122.9 264.8C122.6 264.5 122.2 264.5 122 264.7Z" fill="#FFEDBD"/>
<path opacity="0.1" d="M133.6 250C133.2 249.9 130.7 249.9 130.5 250.5C130.3 251.1 132.6 252.1 133 252.2C133.4 252.3 134.1 251.9 134.3 251.3C134.4 250.7 134 250.1 133.6 250Z" fill="black"/>
<path d="M133.3 250.4C133 250.3 131.1 250.2 131 250.6C130.9 250.9 132.7 251.6 132.9 251.6C133.2 251.7 133.5 251.4 133.6 251.1C133.8 250.8 133.6 250.5 133.3 250.4Z" fill="#FFEDBD"/>
<path opacity="0.1" d="M131.1 260.1C130.7 260.3 128.8 262.2 129.1 262.7C129.4 263.2 131.8 262.2 132.1 261.9C132.5 261.7 132.8 260.9 132.5 260.4C132.2 259.9 131.4 259.9 131.1 260.1Z" fill="black"/>
<path d="M131.2 260.5C130.9 260.7 129.4 262 129.6 262.3C129.8 262.6 131.6 261.7 131.8 261.5C132.1 261.3 132.1 261 132 260.7C131.8 260.5 131.5 260.4 131.2 260.5Z" fill="#FFEDBD"/>
<path opacity="0.1" d="M129 281.2C128.6 281.1 126.1 281.1 125.9 281.7C125.7 282.3 128 283.3 128.4 283.3C128.8 283.4 129.5 283 129.7 282.4C129.9 281.9 129.4 281.3 129 281.2Z" fill="black"/>
<path d="M128.8 281.7C128.5 281.6 126.6 281.5 126.5 281.9C126.4 282.2 128.2 282.9 128.4 282.9C128.7 283 129 282.7 129.1 282.4C129.3 282.1 129.1 281.8 128.8 281.7Z" fill="#FFEDBD"/>
<path opacity="0.1" d="M121.2 280.7C120.8 280.8 118.5 282 118.6 282.6C118.7 283.2 121.2 282.9 121.6 282.8C122 282.7 122.5 282 122.4 281.4C122.4 280.8 121.7 280.5 121.2 280.7Z" fill="black"/>
<path d="M121.3 281.1C121 281.2 119.2 282 119.3 282.4C119.4 282.8 121.3 282.4 121.6 282.3C121.9 282.2 122.1 281.9 122 281.5C121.8 281.2 121.5 281 121.3 281.1Z" fill="#FFEDBD"/>
<path opacity="0.1" d="M122 270.7C121.6 270.9 119.6 272.7 119.9 273.2C120.2 273.7 122.6 272.8 123 272.6C123.4 272.4 123.7 271.6 123.5 271.1C123.3 270.6 122.3 270.5 122 270.7Z" fill="black"/>
<path d="M122.1 271.2C121.8 271.4 120.2 272.6 120.4 272.9C120.5 273.2 122.4 272.4 122.6 272.3C122.9 272.1 122.9 271.8 122.8 271.5C122.7 271.1 122.4 271 122.1 271.2Z" fill="#FFEDBD"/>
<path opacity="0.1" d="M124.1 257.5C123.7 257.7 121.7 259.5 122 260C122.3 260.5 124.7 259.6 125.1 259.4C125.5 259.2 125.8 258.4 125.6 257.9C125.4 257.4 124.5 257.2 124.1 257.5Z" fill="black"/>
<path d="M124.2 257.9C123.9 258.1 122.3 259.3 122.5 259.6C122.6 259.9 124.5 259.1 124.7 259C125 258.8 125 258.5 124.9 258.2C124.8 257.9 124.5 257.8 124.2 257.9Z" fill="#FFEDBD"/>
<path opacity="0.1" d="M115.3 268.4C115.2 268.8 115 271.4 115.6 271.5C116.2 271.6 117.3 269.2 117.4 268.8C117.5 268.4 117.2 267.7 116.6 267.6C116.1 267.4 115.4 267.9 115.3 268.4Z" fill="black"/>
<path d="M115.8 268.5C115.7 268.8 115.5 270.8 115.8 270.8C116.1 270.9 116.9 269 117 268.7C117.1 268.4 116.9 268.1 116.5 268.1C116.2 268 115.8 268.2 115.8 268.5Z" fill="#FFEDBD"/>
<path opacity="0.1" d="M139.8 270.1C139.5 270.4 138.2 272.7 138.6 273.1C139 273.5 141.1 271.8 141.4 271.5C141.7 271.2 141.8 270.4 141.3 270C140.8 269.5 140.1 269.7 139.8 270.1Z" fill="black"/>
<path d="M140.1 270.4C139.9 270.6 138.8 272.3 139 272.6C139.2 272.8 140.8 271.5 141 271.2C141.2 271 141.2 270.6 140.9 270.4C140.6 270.2 140.3 270.2 140.1 270.4Z" fill="#FFEDBD"/>
<path opacity="0.15" d="M110.6 279.9C110.5 279.6 110.4 279.3 110.3 278.9C110.3 278.8 110.2 278.7 110.2 278.6C110.1 278.2 110.1 277.8 110 277.4C110 277.3 110 277.1 110 277C110 276.7 110 276.4 110 276.1C110 275.9 110 275.8 110 275.6C110 275.3 110.1 275 110.1 274.7C110.1 274.4 110.2 274.2 110.2 273.9C110.3 273.6 110.3 273.4 110.4 273.1C110.5 272.9 110.5 272.6 110.6 272.4C110.7 272.2 110.7 272 110.8 271.7C111 271.2 111.2 270.6 111.5 270.1C111.6 270 111.6 269.9 111.7 269.7C111.8 269.4 112 269.1 112.2 268.7C112.3 268.5 112.4 268.4 112.4 268.2C112.6 267.9 112.8 267.5 113 267.1V267C113.5 266.2 114 265.3 114.6 264.4C114.6 264.4 114.6 264.3 114.7 264.3C115 263.8 115.3 263.4 115.6 262.9C113.2 269.1 113 273.6 115.9 277.5C121 284.1 129.4 281.6 145.7 275.7C146.3 275.5 146.9 275.2 147.5 274.9C147.1 273.4 146.8 271.7 146.6 269.9C146.2 266.2 146.6 262.6 147.4 259.5L147.3 259.3C146.4 261.3 145 263.4 143.1 265.3C141.1 267.3 138.9 268.8 136.8 269.7C137.6 267.4 139.2 264.9 141.4 262.7C143.2 260.9 145.1 259.5 147 258.6C144.9 259.2 142.5 259.4 139.9 259C137.3 258.6 135 257.7 133.2 256.5C135.5 255.7 138.2 255.4 141.1 255.8C141.3 255.8 141.6 255.9 141.8 255.9C140.3 255 138.9 254 137.5 252.7C135.1 250.5 133.3 248.1 132 245.6C133.1 245.3 134.1 245.2 135.1 245.2C137.2 246.2 139.4 247.6 141.3 249.4C142.7 250.7 143.9 252 144.9 253.4C146.1 254.7 147.7 256 148.6 255.8C148.7 255.8 148.9 255.7 149 255.6C149.2 256 149.5 256.4 149.7 256.7C149.9 257 150.1 257.4 150.3 257.8C150.2 257.9 150 258 149.9 258.1C149.1 258.9 149.7 262 150.2 263.8C150.3 264.2 150.4 264.6 150.6 265.1C150.6 265.2 150.6 265.2 150.6 265.2C150.9 266.6 151.2 268 151.3 269.5C151.4 270.4 151.4 271.3 151.4 272.1C152 271.6 152.5 271.1 153 270.5C153 271.1 152.9 271.7 152.8 272.3C152.5 274 152 275.7 151 277.3C150.5 278.1 149.9 278.8 149.3 279.5C148.9 279.9 148.4 280.3 147.9 280.7C147.8 280.8 147.7 280.8 147.6 280.9C147.4 281 147.2 281.2 147 281.3C146.9 281.4 146.7 281.5 146.6 281.6C146.4 281.7 146.2 281.8 146 281.9C145.8 282 145.6 282.1 145.5 282.2C145.3 282.3 145.1 282.4 144.9 282.5C144.7 282.6 144.4 282.7 144.2 282.8C144 282.9 143.8 282.9 143.6 283C143.3 283.1 143 283.2 142.7 283.3C142.5 283.3 142.4 283.4 142.2 283.4C141.7 283.5 141.2 283.7 140.7 283.8C123.7 287.3 115 288.4 111.1 281.1C110.9 280.7 110.7 280.3 110.5 279.9C110.7 280.2 110.7 280.1 110.6 279.9Z" fill="black"/>
<path d="M143.4 248.5C144.8 249.8 146 251.1 147 252.5C148.2 253.8 149.8 255.1 150.7 254.9C152.2 254.4 155.7 250.6 155.7 250.6C155.7 250.6 156.3 250.5 157.2 252.2L157.4 252.6C158.3 254.2 157.9 254.8 157.9 254.8C157.9 254.8 153.1 256.2 152 257.4C151.2 258.2 151.8 261.3 152.3 263.1C152.4 263.5 152.5 263.9 152.7 264.4C152.7 264.5 152.7 264.5 152.7 264.5C153 265.9 153.3 267.3 153.4 268.8C153.8 273 153.4 276.9 152.3 280.3C150.4 277.4 149.1 273.5 148.6 269C148.2 265.3 148.6 261.7 149.4 258.6L149.3 258.4C148.4 260.4 147 262.5 145.1 264.4C143.1 266.4 140.9 267.9 138.8 268.8C139.6 266.5 141.2 264 143.4 261.8C145.2 260 147.1 258.6 149 257.7C146.9 258.3 144.5 258.5 141.9 258.1C139.3 257.7 137 256.8 135.2 255.6C137.5 254.8 140.2 254.5 143.1 254.9C143.3 254.9 143.6 255 143.8 255C142.3 254.1 140.9 253.1 139.5 251.8C136.6 249.1 134.4 246 133.2 242.9C136.7 243.7 140.2 245.6 143.4 248.5Z" fill="#007D70"/>
<path d="M90.5 356.2C95.1 376.1 91.9 385.1 91.9 385.1L93.2 385.4C96.2 377.1 95.1 365.6 93.1 355.8C92.2 355.9 91.3 356.1 90.5 356.2Z" fill="#7D6D5F"/>
<path d="M92.8 401.4C93.9 400.6 95.3 400.6 96.5 401.2C98.6 402.4 102.1 403.2 105.7 399C111.4 392.4 110.3 380.7 102.9 378.7C98.8 377.6 96.7 379.2 94.9 380.4C94 381 92.9 381.1 91.9 380.6C90 379.6 87.7 378.3 83.7 379.8C76.6 382.6 76.8 394.4 83.3 400.3C87.4 404.1 90.8 402.8 92.8 401.4Z" fill="#D44163"/>
<g opacity="0.1">
<path opacity="0.1" d="M102.9 378.8C102 378.6 101.3 378.5 100.6 378.4C100.9 378.5 101.2 378.6 101.5 378.7C108.5 382 107.5 393.7 100.7 399.2C99.2 400.4 97.8 401 96.6 401.2C98.7 402.4 102.2 403.1 105.8 399C111.5 392.5 110.3 380.8 102.9 378.8Z" fill="black"/>
</g>
<path opacity="0.1" d="M84.5 383.2C85.7 383.6 86.2 385.4 85.7 387.3C85.1 389.2 83.7 390.5 82.5 390.1C81.3 389.7 80.8 387.9 81.3 386C81.9 384 83.3 382.8 84.5 383.2Z" fill="white"/>
<path d="M106.3 42.4C106.3 42.4 91.2 37 73.2 4.9C73.2 4.9 72.6 3.4 71.3 0L67 1.6L68.5 7.6C68.5 7.6 70.8 34.2 66 58.7L68.6 57.7C68.6 57.7 74.6 32 71 7.6C71 7.6 88.1 37.2 105.6 43.5L106.3 42.4Z" fill="#7D6D5F"/>
<path d="M116.1 58.1C114.7 58.1 113.6 59 113 60.2C112 62.4 109.7 65.2 104.3 64C95.8 62.2 89.6 52.2 94.3 46.1C96.9 42.7 99.5 42.7 101.7 42.6C102.8 42.6 103.7 41.9 104.2 40.9C105.1 38.9 106.1 36.5 110.3 35.4C117.7 33.4 124.6 42.9 123 51.5C122 57 118.5 58.1 116.1 58.1Z" fill="#D44163"/>
<g opacity="0.1">
<path opacity="0.1" d="M94.4001 46.2C95.0001 45.5 95.5001 44.9 96.0001 44.5C95.8001 44.8 95.7001 45 95.5001 45.3C91.9001 52.1 99.7001 60.9 108.5 61.2C110.4 61.3 111.9 60.9 113 60.4C112 62.6 109.7 65.3 104.4 64.2C95.8001 62.2 89.6001 52.2 94.4001 46.2Z" fill="black"/>
</g>
<path opacity="0.1" d="M111.7 38.6C111 39.6 111.7 41.4 113.3 42.6C114.9 43.8 116.8 43.9 117.6 42.9C118.3 41.9 117.6 40.1 116 38.9C114.3 37.7 112.4 37.6 111.7 38.6Z" fill="white"/>
<path d="M71.5 76C70.3 75.4 68.8 75.6 67.8 76.5C65.9 78 62.6 79.5 58.3 76C51.5 70.5 50.4 58.8 57.4 55.5C61.3 53.7 63.6 54.8 65.6 55.7C66.6 56.1 67.7 56 68.6 55.3C70.3 53.9 72.3 52.2 76.5 53.1C84 54.6 85.9 66.2 80.7 73.2C77.3 77.7 73.7 77.1 71.5 76Z" fill="#D44163"/>
<path opacity="0.1" d="M57.4 55.6C54 59.9 55.9 68 61.3 72.2C65.5 75.4 68.6 74.2 70.4 72.8C71.4 72 72.8 71.8 74.1 72.4C75.9 73.2 78.6 73.8 81.4 72C81.1 72.4 80.9 72.9 80.6 73.3C77.2 77.7 73.6 77.1 71.5 76C70.3 75.4 68.8 75.6 67.8 76.5C65.9 78 62.6 79.5 58.3 76C51.6 70.6 50.5 58.9 57.4 55.6Z" fill="black"/>
<path opacity="0.1" d="M73.9 56.4C73.2 57.4 73.9 59.2 75.5 60.4C77.1 61.6 79 61.7 79.8 60.7C80.5 59.7 79.8 57.9 78.2 56.7C76.6 55.5 74.7 55.4 73.9 56.4Z" fill="white"/>
</g>
<defs>
<clipPath id="clip0_47_1057">
<rect width="173.4" height="402.8" fill="white"/>
</clipPath>
</defs>
</svg>
