<svg width="296" height="203" viewBox="0 0 296 203" fill="none" xmlns="http://www.w3.org/2000/svg">
<g filter="url(#filter0_d_46_9)">
<path d="M29.7956 20.4365C6.27116 73.5562 30.175 135.529 83.2948 159.054C136.414 182.578 198.388 158.674 221.912 105.555L29.7956 20.4365Z" fill="#00A291"/>
<path d="M43.202 26.3809C22.9659 72.0386 43.5814 125.538 89.2391 145.9C134.897 166.136 188.396 145.521 208.758 99.8632L43.202 26.3809Z" fill="#ABD9D4"/>
<path d="M47.7551 28.4045C28.6573 71.5326 48.1346 121.996 91.2627 141.094C134.391 160.192 184.855 140.715 203.952 97.5866L47.7551 28.4045Z" fill="#D44C57"/>
<path d="M200.791 96.1953L51.0435 29.9221C35.6135 71.7855 53.826 118.328 93.5393 135.909C133.253 153.489 180.049 135.782 200.791 96.1953Z" fill="#FF616C"/>
<path opacity="0.1" d="M110.993 96.7012C130.47 105.302 152.097 104.543 171.701 96.3218C174.231 95.31 174.231 91.6422 171.701 90.6304L74.8209 47.6287C72.2914 46.4904 69.6354 48.8935 70.6472 51.5495C77.6034 71.5326 91.5157 88.1009 110.993 96.7012Z" fill="#202020"/>
<path opacity="0.1" d="M57.8732 51.5495C57.4938 49.6524 58.632 47.7552 60.6556 47.3758L66.2206 46.1111C68.1177 45.7316 70.0148 46.8699 70.3943 48.8935C70.7737 50.7907 69.6354 52.6878 67.6118 53.0672L62.0469 54.332C60.2762 54.5849 58.3791 53.4466 57.8732 51.5495Z" fill="black"/>
<path d="M59.3909 51.2965V51.0436C59.1379 49.7788 59.8968 48.6406 61.1615 48.3876L66.347 47.2493C67.6118 46.9964 68.7501 47.7552 69.003 49.02V49.2729C69.256 50.5377 68.4971 51.676 67.2324 51.9289L62.1734 53.0672C60.9086 53.3202 59.6438 52.5613 59.3909 51.2965Z" fill="#571F23"/>
<path opacity="0.2" d="M64.9558 49.3995C64.8293 49.0201 65.0823 48.6406 65.3352 48.6406L66.6 48.3877C66.8529 48.2612 67.2324 48.5141 67.2324 48.7671V48.8936C67.3588 49.1465 67.1059 49.526 66.8529 49.526L65.5882 49.7789C65.3352 49.9054 64.9558 49.6524 64.9558 49.3995Z" fill="#202020"/>
<path opacity="0.1" d="M74.6944 81.1447C73.5561 79.627 73.8091 77.3505 75.3268 76.2122L79.8799 72.7974C81.3976 71.6591 83.6742 71.912 84.8125 73.4297C85.9508 74.9475 85.6978 77.224 84.0536 78.3623L79.5005 81.7771C78.1093 83.0419 75.9592 82.6625 74.6944 81.1447Z" fill="black"/>
<path d="M76.0856 80.3858L75.9592 80.1329C75.2003 79.1211 75.4533 77.7298 76.3386 76.971L80.5123 73.8091C81.5241 73.0502 82.9153 73.3032 83.6742 74.1885L83.8007 74.4415C84.5595 75.4533 84.3066 76.8445 83.4212 77.6034L79.2475 80.7653C78.2357 81.5241 76.8445 81.2712 76.0856 80.3858Z" fill="#571F23"/>
<path opacity="0.2" d="M80.2593 76.3387C80.0064 75.9592 80.0064 75.5798 80.2593 75.4533L81.2711 74.6945C81.5241 74.568 81.9035 74.568 82.03 74.8209L82.1565 74.9474C82.4094 75.2004 82.2829 75.5798 82.03 75.7063L81.0182 76.4651C80.7652 76.5916 80.3858 76.5916 80.2593 76.3387Z" fill="#202020"/>
<path opacity="0.1" d="M107.452 92.2746C106.313 90.7569 106.566 88.4803 108.084 87.342L112.637 83.9272C114.155 82.7889 116.431 83.0419 117.57 84.5596C118.708 86.0773 118.455 88.3538 116.811 89.4921L112.258 92.9069C110.866 94.1717 108.59 93.7923 107.452 92.2746Z" fill="black"/>
<path d="M108.716 91.3893L108.59 91.1364C107.831 90.1246 108.084 88.7334 108.969 87.9745L113.143 84.8126C114.155 84.0538 115.546 84.3067 116.305 85.192L116.431 85.445C117.19 86.4568 116.937 87.848 116.052 88.6069L111.878 91.7688C110.866 92.6541 109.475 92.4011 108.716 91.3893Z" fill="#571F23"/>
<path opacity="0.2" d="M112.89 87.3422C112.637 86.9628 112.637 86.5833 112.89 86.4569L113.902 85.698C114.155 85.5715 114.534 85.5715 114.661 85.8245L114.787 85.951C115.04 86.2039 114.914 86.5833 114.661 86.7098L113.649 87.4687C113.522 87.7216 113.143 87.5951 112.89 87.3422Z" fill="#202020"/>
<path opacity="0.1" d="M173.725 103.784C172.587 102.266 172.839 99.9895 174.357 98.8512L178.91 95.4364C180.428 94.2981 182.705 94.5511 183.843 96.0688C184.981 97.5865 184.728 99.8631 183.084 101.001L178.531 104.416C177.14 105.681 174.863 105.428 173.725 103.784Z" fill="black"/>
<path d="M174.99 103.025L174.863 102.772C174.104 101.76 174.357 100.369 175.242 99.6099L179.416 96.4481C180.428 95.6892 181.819 95.9421 182.578 96.8275L182.705 97.0804C183.463 98.0922 183.21 99.4835 182.325 100.242L178.151 103.404C177.14 104.163 175.748 104.037 174.99 103.025Z" fill="#571F23"/>
<path opacity="0.2" d="M179.163 98.9776C178.91 98.5982 178.91 98.2188 179.163 98.0923L180.175 97.3334C180.428 97.0805 180.807 97.207 180.934 97.4599L181.06 97.5864C181.313 97.8393 181.187 98.2188 180.934 98.3452L179.922 99.1041C179.669 99.2306 179.29 99.2306 179.163 98.9776Z" fill="#202020"/>
<path opacity="0.1" d="M79.2476 54.9645C80.2594 53.3203 82.4094 52.6879 84.1801 53.6997L88.9862 56.6086C90.6303 57.6204 91.2627 59.7705 90.2509 61.5412C89.2391 63.1854 87.089 63.8177 85.3184 62.8059L80.5123 59.897C78.8681 58.8852 78.2357 56.6086 79.2476 54.9645Z" fill="black"/>
<path d="M80.5123 55.8497L80.6388 55.5967C81.2712 54.5849 82.6624 54.2055 83.6742 54.8379L88.1009 57.4939C89.1127 58.1262 89.4921 59.5175 88.8597 60.5293L88.7332 60.7822C88.1009 61.794 86.7096 62.1735 85.6978 61.5411L81.2712 58.8851C80.2594 58.3792 79.8799 56.988 80.5123 55.8497Z" fill="#571F23"/>
<path opacity="0.2" d="M85.8243 58.2526C86.0773 57.8732 86.4567 57.7467 86.7096 57.9997L87.7214 58.6321C87.9744 58.7585 88.1009 59.138 87.9744 59.3909V59.5174C87.8479 59.7703 87.4685 59.8968 87.2155 59.7703L86.2037 59.138C85.6978 58.885 85.6978 58.5056 85.8243 58.2526Z" fill="#202020"/>
<path opacity="0.1" d="M104.543 71.1533C103.784 69.3826 104.669 67.2325 106.44 66.4737L111.752 64.3236C113.522 63.5647 115.673 64.4501 116.431 66.2207C117.19 67.9914 116.305 70.1415 114.534 70.9003L109.222 73.0504C107.452 73.9357 105.302 73.0504 104.543 71.1533Z" fill="black"/>
<path d="M106.06 70.7737L105.934 70.5208C105.428 69.3825 106.06 68.1177 107.199 67.6118L112.005 65.5882C113.143 65.0823 114.408 65.7147 114.914 66.853L115.04 67.1059C115.546 68.2442 114.914 69.509 113.775 70.0149L108.969 71.912C107.831 72.4179 106.566 71.912 106.06 70.7737Z" fill="#571F23"/>
<path opacity="0.2" d="M111.119 67.8647C110.993 67.4853 111.119 67.1058 111.372 66.9793L112.511 66.4734C112.764 66.347 113.143 66.4734 113.269 66.7264V66.8529C113.396 67.1058 113.269 67.4853 113.017 67.6117L111.878 68.2441C111.625 68.3706 111.246 68.1176 111.119 67.8647Z" fill="#202020"/>
<path opacity="0.1" d="M134.644 85.698C132.747 86.3304 130.723 85.1921 130.217 83.295L128.573 77.8565C127.941 75.9594 129.079 73.9358 130.976 73.4299C132.873 72.7975 134.897 73.9358 135.403 75.8329L137.047 81.2714C137.553 83.1685 136.541 85.0656 134.644 85.698Z" fill="black"/>
<path d="M134.391 84.1804L134.138 84.3068C133 84.6863 131.735 84.0539 131.355 82.7891L129.838 77.7301C129.458 76.5918 130.091 75.3271 131.355 74.9477L131.608 74.8212C132.747 74.4418 134.011 75.0741 134.391 76.3389L135.909 81.3979C136.162 82.5362 135.529 83.8009 134.391 84.1804Z" fill="#571F23"/>
<path opacity="0.2" d="M131.988 78.8683C131.608 78.9948 131.229 78.8683 131.103 78.4889L130.723 77.3506C130.597 77.0977 130.85 76.7182 131.103 76.5917H131.229C131.482 76.4653 131.861 76.7182 131.988 76.9712L132.367 78.1095C132.494 78.4889 132.241 78.7418 131.988 78.8683Z" fill="#202020"/>
<path opacity="0.1" d="M61.1615 80.133C59.0114 79.88 57.4937 78.1094 57.7467 75.9593L58.3791 69.8885C58.632 67.7384 60.4027 66.2207 62.5528 66.4736C64.7028 66.7266 66.2206 68.4972 65.9676 70.6473L65.3352 76.7182C65.0823 78.7418 63.1851 80.2595 61.1615 80.133Z" fill="black"/>
<path d="M61.4145 78.4887H61.1615C59.8968 78.3622 58.885 77.2239 59.0114 75.8327L59.5173 70.2677C59.6438 69.003 60.7821 67.9912 62.1733 68.1177H62.4263C63.691 68.2441 64.7028 69.3824 64.5764 70.7736L64.0705 76.3386C63.944 77.6033 62.6792 78.6151 61.4145 78.4887Z" fill="#571F23"/>
<path opacity="0.2" d="M61.288 72.2913H61.1615C60.7821 72.2913 60.5292 71.9118 60.6556 71.6589L60.7821 70.2677C60.7821 69.8882 61.1615 69.6353 61.4145 69.7618H61.541C61.9204 69.7618 62.1733 70.1412 62.0469 70.3941L61.9204 71.7854C61.9204 72.0383 61.6674 72.2913 61.288 72.2913Z" fill="#202020"/>
<path opacity="0.1" d="M94.6775 99.3574C92.5275 99.6103 90.7568 97.9662 90.5039 95.9426L89.8715 89.8717C89.6185 87.7216 91.2627 85.951 93.2863 85.698C95.4364 85.4451 97.2071 87.0893 97.46 89.1129L98.0924 95.1837C98.2189 97.2073 96.7012 99.1044 94.6775 99.3574Z" fill="black"/>
<path d="M94.5511 97.7131H94.2981C93.0334 97.8395 91.7686 96.8277 91.6421 95.563L91.1362 89.998C91.0098 88.7333 92.0216 87.4685 93.2863 87.3421H93.5393C94.804 87.2156 96.0688 88.2274 96.1953 89.4921L96.7012 95.0571C96.9541 96.3218 95.9423 97.5866 94.5511 97.7131Z" fill="#571F23"/>
<path opacity="0.2" d="M93.2863 91.5157H93.1598C92.7804 91.5157 92.5275 91.2628 92.5275 91.0098L92.2745 89.745C92.2745 89.3656 92.5274 89.1127 92.7804 89.1127H92.9069C93.2863 89.1127 93.5393 89.3656 93.5393 89.6186L93.6657 91.0098C93.7922 91.2628 93.5393 91.5157 93.2863 91.5157Z" fill="#202020"/>
<path opacity="0.1" d="M109.475 116.937C107.452 116.558 106.06 114.408 106.566 112.384L107.831 106.44C108.21 104.416 110.361 103.025 112.384 103.531C114.408 103.91 115.799 106.06 115.293 108.084L114.028 114.028C113.522 116.052 111.499 117.317 109.475 116.937Z" fill="black"/>
<path d="M109.855 115.293H109.602C108.337 115.04 107.452 113.775 107.705 112.384L108.843 106.819C109.096 105.554 110.36 104.669 111.752 104.922H112.005C113.269 105.175 114.155 106.44 113.902 107.831L112.764 113.522C112.511 114.787 111.246 115.672 109.855 115.293Z" fill="#571F23"/>
<path opacity="0.2" d="M110.487 109.096C109.981 108.969 109.855 108.716 109.855 108.337L110.108 107.072C110.234 106.693 110.487 106.566 110.866 106.566H110.993C111.372 106.693 111.499 106.946 111.499 107.325L111.246 108.59C111.119 108.969 110.74 109.222 110.487 109.096Z" fill="#202020"/>
<path opacity="0.1" d="M154.374 102.14C152.35 101.76 150.959 99.6103 151.465 97.5867L152.73 91.6423C153.109 89.6187 155.259 88.2275 157.283 88.7334C159.307 89.1128 160.698 91.2629 160.192 93.2865L158.927 99.2308C158.421 101.254 156.398 102.519 154.374 102.14Z" fill="black"/>
<path d="M154.753 100.496H154.5C153.236 100.243 152.35 98.9778 152.603 97.5866L153.742 92.0217C153.995 90.7569 155.259 89.8716 156.651 90.1245H156.904C158.168 90.3775 159.054 91.6422 158.801 93.0335L157.662 98.5984C157.409 99.9896 156.145 100.748 154.753 100.496Z" fill="#571F23"/>
<path opacity="0.2" d="M155.386 94.2983C154.88 94.1719 154.753 93.9189 154.753 93.5395L155.006 92.2747C155.133 91.8953 155.386 91.7688 155.765 91.7688H155.892C156.271 91.8953 156.398 92.1483 156.398 92.5277L156.145 93.7924C156.018 94.1719 155.765 94.4248 155.386 94.2983Z" fill="#202020"/>
<path opacity="0.1" d="M133 110.108C130.976 109.728 129.585 107.578 130.091 105.555L131.355 99.6104C131.735 97.5867 133.885 96.1955 135.909 96.7014C137.932 97.0808 139.323 99.2309 138.818 101.255L137.553 107.199C137.173 109.222 135.15 110.614 133 110.108Z" fill="black"/>
<path d="M133.506 108.59H133.253C131.988 108.337 131.103 107.072 131.355 105.681L132.494 100.116C132.747 98.8515 134.011 97.9662 135.403 98.2192H135.656C136.92 98.4721 137.806 99.7369 137.553 101.128L136.414 106.693C136.162 107.958 134.897 108.843 133.506 108.59Z" fill="#571F23"/>
<path opacity="0.2" d="M134.138 102.266C133.632 102.14 133.506 101.887 133.506 101.508L133.759 100.243C133.885 99.8634 134.138 99.7369 134.517 99.7369H134.644C135.023 99.8634 135.15 100.116 135.15 100.496L134.897 101.76C134.77 102.14 134.391 102.393 134.138 102.266Z" fill="#202020"/>
<path opacity="0.1" d="M63.5646 98.8513C62.8057 96.8277 63.944 94.6776 65.8411 93.9188L71.659 91.8952C73.6826 91.1363 75.8327 92.2746 76.5916 94.1717C77.3504 96.1953 76.2121 98.3454 74.315 99.1043L68.4971 101.128C66.4735 101.887 64.3234 100.748 63.5646 98.8513Z" fill="black"/>
<path d="M65.2088 98.3454L65.0823 98.0924C64.5764 96.8277 65.3352 95.4364 66.6 95.057L71.912 93.1599C73.1767 92.654 74.568 93.4128 74.9474 94.6776L75.0739 94.9305C75.5798 96.1953 74.8209 97.5865 73.5562 97.9659L68.2442 99.8631C66.9794 100.369 65.5882 99.6101 65.2088 98.3454Z" fill="#571F23"/>
<path opacity="0.2" d="M70.7737 95.5631C70.6472 95.1837 70.7737 94.8042 71.1531 94.6778L72.4179 94.1718C72.7973 94.0454 73.0503 94.1719 73.1767 94.5513V94.6778C73.3032 95.0572 73.1767 95.3101 72.7973 95.4366L71.5326 95.9425C71.2796 96.069 70.9002 95.9425 70.7737 95.5631Z" fill="#202020"/>
<path opacity="0.1" d="M87.9744 123.514C86.0772 122.502 85.4449 120.226 86.3302 118.328L89.2391 112.89C90.2509 110.993 92.5275 110.361 94.4246 111.246C96.3218 112.258 96.9541 114.534 96.0688 116.431L93.1599 121.87C92.2745 123.767 89.8715 124.526 87.9744 123.514Z" fill="black"/>
<path d="M88.9862 122.123L88.7332 121.996C87.5949 121.364 87.089 119.846 87.7214 118.708L90.3774 113.775C91.0098 112.637 92.5275 112.131 93.6658 112.763L93.9187 112.89C95.057 113.522 95.5629 115.04 94.9305 116.178L92.2745 121.111C91.5157 122.249 90.1245 122.755 88.9862 122.123Z" fill="#571F23"/>
<path opacity="0.2" d="M91.1362 116.305C90.7568 116.052 90.6303 115.672 90.7568 115.419L91.3892 114.281C91.5157 114.028 91.8951 113.902 92.2745 114.028H92.401C92.6539 114.155 92.7804 114.534 92.6539 114.914L92.0216 116.052C91.8951 116.305 91.5157 116.431 91.1362 116.305Z" fill="#202020"/>
<path opacity="0.1" d="M119.973 126.423C120.099 124.273 121.996 122.755 124.02 122.882L130.091 123.261C132.241 123.387 133.758 125.285 133.632 127.308C133.506 129.458 131.608 130.976 129.585 130.85L123.514 130.47C121.49 130.344 119.846 128.573 119.973 126.423Z" fill="black"/>
<path d="M121.617 126.676V126.423C121.743 125.158 122.882 124.02 124.146 124.146L129.711 124.526C130.976 124.652 132.114 125.79 131.988 127.055V127.308C131.861 128.573 130.723 129.711 129.458 129.585L123.893 129.205C122.502 129.205 121.49 128.067 121.617 126.676Z" fill="#571F23"/>
<path opacity="0.2" d="M127.814 126.423V126.296C127.814 125.917 128.194 125.664 128.447 125.664L129.838 125.79C130.217 125.79 130.47 126.17 130.47 126.423V126.549C130.47 126.929 130.091 127.182 129.838 127.182L128.447 127.055C128.067 127.055 127.814 126.676 127.814 126.423Z" fill="#202020"/>
<path opacity="0.1" d="M142.106 121.491C141.473 119.467 142.612 117.317 144.635 116.685L150.453 114.787C152.477 114.155 154.627 115.293 155.259 117.317C155.892 119.341 154.753 121.491 152.73 122.123L146.912 123.894C144.888 124.526 142.738 123.388 142.106 121.491Z" fill="black"/>
<path d="M143.75 121.111L143.624 120.858C143.244 119.593 143.877 118.202 145.141 117.823L150.453 116.052C151.718 115.673 153.109 116.305 153.489 117.57L153.615 117.823C153.995 119.087 153.362 120.479 152.097 120.858L146.785 122.629C145.521 123.008 144.129 122.376 143.75 121.111Z" fill="#571F23"/>
<path opacity="0.2" d="M149.441 118.455C149.315 117.949 149.441 117.696 149.821 117.57L151.086 117.191C151.465 117.064 151.718 117.317 151.844 117.57V117.696C151.971 118.076 151.718 118.329 151.465 118.455L150.2 118.835C149.821 118.961 149.568 118.835 149.441 118.455Z" fill="#202020"/>
<path d="M29.1632 124.526C29.1632 124.526 48.7669 129.585 90.3774 108.969C90.3774 108.969 92.0216 107.831 95.8158 105.175L99.1042 109.855L93.4128 115.04C93.4128 115.04 72.0384 141.094 59.6438 170.184L57.6202 167.275C57.6202 167.275 69.6354 136.162 90.8833 113.27C90.8833 113.27 51.9288 131.988 29.0367 126.17L29.1632 124.526Z" fill="#7D6D5F"/>
<path d="M7.78886 133.885C9.18009 134.897 9.81247 136.541 9.55952 138.312C9.05362 141.347 9.43304 145.9 15.8833 148.556C26.1278 152.73 39.6607 146.659 39.0283 137.047C38.6489 131.608 35.9929 129.711 33.7164 128.067C32.5781 127.182 32.0722 125.917 32.3251 124.526C32.831 121.743 33.4634 118.581 29.9221 114.408C23.5983 106.946 9.686 112.005 5.13288 122.123C2.35041 128.573 5.25935 132.241 7.78886 133.885Z" fill="#D44163"/>
<g opacity="0.1">
<path opacity="0.1" d="M39.0283 136.92C38.9019 135.782 38.7754 134.77 38.5224 134.011C38.5224 134.391 38.5224 134.77 38.5224 135.15C37.3842 144.762 22.9659 148.43 13.6068 142.485C11.5831 141.221 10.3184 139.829 9.55953 138.438C9.05363 141.474 9.55953 145.9 15.8833 148.556C26.0014 152.73 39.6607 146.659 39.0283 136.92Z" fill="black"/>
</g>
<path opacity="0.1" d="M26.2543 116.684C26.2543 118.328 24.3572 119.593 21.8277 119.72C19.2981 119.846 17.2745 118.581 17.1481 116.937C17.1481 115.293 19.0452 114.028 21.5747 113.902C24.2307 113.902 26.2543 115.166 26.2543 116.684Z" fill="#202020"/>
<path d="M41.5578 184.349C43.3285 184.602 44.5933 185.867 45.0992 187.511C45.9845 190.42 48.3875 194.341 55.3437 193.835C66.347 192.949 75.8327 181.567 70.9002 173.093C68.1177 168.413 64.9558 167.907 62.1734 167.528C60.7821 167.275 59.7703 166.389 59.3909 164.998C58.632 162.342 57.7467 159.18 52.6877 157.03C43.7079 153.236 33.4634 163.986 34.0958 174.99C34.2223 182.072 38.5224 183.97 41.5578 184.349Z" fill="#D44163"/>
<path opacity="0.1" d="M70.7737 173.219C71.1531 180.175 63.5646 187.258 54.8378 187.764C48.1346 188.143 45.7315 184.602 44.8462 181.819C44.3403 180.302 42.9491 179.037 41.3049 178.784C38.9019 178.405 35.6135 177.013 33.9693 173.219C33.9693 173.852 33.9693 174.484 33.9693 175.116C34.3487 182.199 38.5224 184.096 41.5578 184.475C43.3285 184.728 44.5933 185.993 45.0992 187.637C45.9845 190.546 48.3875 194.467 55.3437 193.961C66.2206 193.076 75.7062 181.567 70.7737 173.219Z" fill="black"/>
<path opacity="0.1" d="M53.0671 162.216C53.0671 163.86 51.17 165.125 48.6405 165.251C46.1109 165.378 44.0873 164.113 43.9609 162.469C43.9609 160.824 45.858 159.56 48.3875 159.433C50.917 159.433 52.9406 160.571 53.0671 162.216Z" fill="#202020"/>
<path d="M201.929 35.4875C192.317 24.99 191.431 3.10971 191.431 3.10971L187.005 6.52455C190.04 23.7252 194.34 32.3256 199.02 37.3846C199.905 36.8787 200.917 36.2463 201.929 35.4875Z" fill="#9E8A78"/>
<path d="M193.076 23.8516C193.076 23.8516 163.733 46.1113 137.3 8.29509C137.3 8.29509 175.495 -10.6762 193.076 23.8516Z" fill="#00A291"/>
<path d="M250.622 120.605C266.305 111.499 280.344 114.282 286.794 99.9898C303.995 61.7942 276.043 -4.09956 239.492 0.200605C218.624 2.60364 213.565 20.0573 197.629 29.4165C181.566 38.7756 163.986 34.4755 151.592 51.4232C129.838 81.145 173.219 137.932 215.082 141.853C230.386 143.244 234.939 129.712 250.622 120.605Z" fill="#BAD481"/>
<path opacity="0.1" d="M258.59 34.7285C254.416 38.6493 246.195 36.8786 240.377 30.5548C234.433 24.3575 233.042 16.0101 237.215 12.0894C241.389 8.16866 249.61 9.93932 255.428 16.2631C261.246 22.4604 262.764 30.8078 258.59 34.7285Z" fill="#202020"/>
<path opacity="0.05" d="M284.644 98.2191C274.146 109.728 261.625 102.772 243.919 106.566C226.086 110.361 217.612 121.87 203.32 115.673C178.151 104.796 159.433 72.1651 157.789 44.8464C155.639 46.617 153.489 48.7671 151.465 51.4231C129.711 81.1449 173.092 137.932 214.956 141.853C230.512 143.244 235.065 129.711 250.748 120.605C266.431 111.499 280.47 114.281 286.92 99.9897C288.059 97.3337 289.07 94.5513 289.829 91.7688C288.185 94.0454 286.541 96.1954 284.644 98.2191Z" fill="black"/>
<path d="M216.094 191.431C261.246 182.578 290.968 139.324 283.379 94.1718C283.126 92.9071 281.988 92.0217 280.723 92.2747L118.834 124.02C117.57 124.273 116.811 125.538 117.064 126.803C127.055 171.575 170.942 200.411 216.094 191.431Z" fill="#FFB13B"/>
<path d="M214.323 182.325C255.175 174.357 281.861 134.644 273.767 93.7924L125.791 122.882C133.759 163.733 173.472 190.293 214.323 182.325Z" fill="#FFE5BD"/>
<path d="M213.185 176.76C251.001 169.298 275.664 132.621 268.202 94.8043L131.229 121.744C138.691 159.56 175.369 184.223 213.185 176.76Z" fill="#FFF3E0"/>
<path d="M205.217 124.273L211.92 165.757C212.3 167.907 214.576 169.425 216.853 168.792C230.006 165.124 241.263 157.662 249.357 148.05C250.875 146.28 250.369 143.75 248.345 142.485L211.288 120.479C208.379 118.708 204.711 121.111 205.217 124.273Z" fill="#FFB13B"/>
<path d="M213.818 116.811L249.357 140.968C251.254 142.232 253.91 141.727 255.175 139.703C261.625 128.953 264.661 116.305 263.143 103.404C262.89 101.128 260.614 99.7367 258.337 100.243L215.335 110.108C212.047 110.74 211.035 114.914 213.818 116.811Z" fill="#FFB13B"/>
<path d="M185.993 115.799L142.485 123.008C140.209 123.388 138.691 125.664 139.197 127.688C142.738 140.209 150.327 150.706 160.318 158.295C162.089 159.686 164.872 159.18 166.136 157.283L189.914 121.491C191.811 118.708 189.408 115.293 185.993 115.799Z" fill="#FFB13B"/>
<path d="M193.708 123.894L167.654 158.295C166.263 160.066 166.769 162.722 168.792 163.733C179.922 169.678 193.202 172.334 206.735 170.69C209.011 170.437 210.656 168.287 210.15 166.01L200.791 125.158C200.032 121.997 195.732 121.238 193.708 123.894Z" fill="#FFB13B"/>
<path opacity="0.05" d="M248.978 142.865C248.851 143.245 248.598 143.75 248.345 144.13C240.377 153.995 229.374 161.584 216.221 165.504C214.323 166.01 212.426 165.125 211.667 163.607L212.047 165.884C212.426 168.034 214.703 169.551 216.979 168.919C230.133 165.251 241.389 157.789 249.484 148.177C250.622 146.406 250.369 144.13 248.978 142.865Z" fill="black"/>
<path opacity="0.05" d="M263.143 103.405C263.017 102.266 262.384 101.381 261.499 100.875C262.764 113.27 259.981 125.411 253.91 135.909C252.772 137.932 250.116 138.565 248.219 137.3L212.3 113.649C212.3 113.649 212.3 113.649 212.173 113.649C212.047 114.914 212.553 116.179 213.818 116.937L249.357 141.094C251.254 142.359 253.91 141.853 255.175 139.83C261.499 128.953 264.534 116.305 263.143 103.405Z" fill="black"/>
<path opacity="0.05" d="M189.028 116.558C189.028 117.19 188.902 117.949 188.396 118.582L165.251 154.88C163.986 156.777 161.33 157.41 159.433 156.018C152.856 151.212 147.291 145.142 143.118 138.059C147.165 146.153 153.109 152.983 160.192 158.421C161.963 159.813 164.745 159.307 166.01 157.41L189.914 121.491C191.052 119.72 190.546 117.696 189.028 116.558Z" fill="black"/>
<path d="M209.011 160.698L200.791 125.158C200.664 124.4 200.158 123.767 199.652 123.261L209.011 160.698Z" fill="#FFB13B"/>
<path opacity="0.05" d="M210.15 166.01L209.517 163.228C209.77 165.251 208.379 167.275 206.103 167.528C192.57 169.425 179.29 166.895 168.033 161.204C167.527 160.951 167.148 160.572 166.895 160.192C166.769 161.583 167.527 162.975 168.792 163.734C179.922 169.678 193.202 172.334 206.735 170.69C209.138 170.437 210.656 168.287 210.15 166.01Z" fill="black"/>
</g>
<defs>
<filter id="filter0_d_46_9" x="0" y="0.00012207" width="295.996" height="202.005" filterUnits="userSpaceOnUse" color-interpolation-filters="sRGB">
<feFlood flood-opacity="0" result="BackgroundImageFix"/>
<feColorMatrix in="SourceAlpha" type="matrix" values="0 0 0 0 0 0 0 0 0 0 0 0 0 0 0 0 0 0 127 0" result="hardAlpha"/>
<feOffset dy="4"/>
<feGaussianBlur stdDeviation="2"/>
<feComposite in2="hardAlpha" operator="out"/>
<feColorMatrix type="matrix" values="0 0 0 0 0 0 0 0 0 0 0 0 0 0 0 0 0 0 0.25 0"/>
<feBlend mode="normal" in2="BackgroundImageFix" result="effect1_dropShadow_46_9"/>
<feBlend mode="normal" in="SourceGraphic" in2="effect1_dropShadow_46_9" result="shape"/>
</filter>
</defs>
</svg>
